<svg width="62" height="20" viewBox="0 0 62 20" fill="none" xmlns="http://www.w3.org/2000/svg">
<g clip-path="url(#clip0)">
<path fill-rule="evenodd" clip-rule="evenodd" d="M10.1434 0.684174C10.1234 0.684174 10.1034 0.684174 10.0834 0.684174C7.39638 0.684174 4.81107 1.30748 2.30577 2.56493C1.28898 4.97983 0.715583 7.43473 0.685579 9.93962C0.645575 12.4245 1.15814 14.9694 2.29494 17.5651C4.91108 18.7018 7.52723 19.2851 10.1434 19.3159C12.7595 19.2851 15.3757 18.7018 17.991 17.5651C19.1286 14.9694 19.6412 12.4245 19.6012 9.93962C19.5712 7.43473 18.9978 4.97983 17.981 2.56493C15.4757 1.30748 12.8904 0.684174 10.2034 0.684174C10.1834 0.684174 10.1634 0.684174 10.1434 0.684174V0.684174Z" fill="#FEFEFE"/>
<path d="M1.88268 2.01242C4.51883 0.664139 7.25499 0 10.0828 0C10.1028 0 10.1228 0 10.1428 0C10.1628 0 10.1828 0 10.2028 0C13.0307 0 15.7668 0.664139 18.403 2.01242L18.5647 2.18324C19.6406 4.71814 20.2549 7.30386 20.2849 9.92959C20.2849 9.97958 20.2849 10.0196 20.2849 10.0704V10.2512C20.2749 12.7761 19.7315 15.3519 18.5647 17.9676L18.383 18.1384C15.6368 19.3559 12.8898 19.9692 10.1428 20C7.39584 19.9692 4.64884 19.3559 1.90269 18.1384L1.721 17.9676C0.554192 15.3519 0.0107946 12.7761 0.000793457 10.2512V10.0704C0.000793457 10.0196 0.000793457 9.97958 0.000793457 9.92959C0.030797 7.30386 0.645036 4.71814 1.721 2.18324L1.88268 2.01242V2.01242ZM10.1428 0.684138C10.1228 0.684138 10.1028 0.684138 10.0828 0.684138C7.39584 0.684138 4.81053 1.30745 2.30523 2.56489C1.28845 4.97979 0.715045 7.43469 0.685041 9.93959C0.645036 12.4245 1.1576 14.9694 2.2944 17.5651C4.91054 18.7017 7.52669 19.285 10.1428 19.3159C12.759 19.285 15.3751 18.7017 17.9904 17.5651C19.1281 14.9694 19.6406 12.4245 19.6006 9.93959C19.5706 7.43469 18.9972 4.97979 17.9804 2.56489C15.4751 1.30745 12.8898 0.684138 10.2028 0.684138C10.1828 0.684138 10.1628 0.684138 10.1428 0.684138V0.684138Z" fill="#003399"/>
<path fill-rule="evenodd" clip-rule="evenodd" d="M10.3243 15.5835C10.1835 13.6619 10.2743 11.6595 9.70094 9.82875C9.16754 8.11883 7.1448 7.14303 7.1048 5.26145C7.06479 3.79234 8.18159 2.09241 10.2743 2.09241C12.2362 2.08241 13.4539 3.51069 13.5947 5.10062C13.7656 6.94138 11.532 8.17882 10.9486 9.92958C10.3444 11.7203 10.516 13.7019 10.3243 15.5835Z" fill="#003399"/>
<path fill-rule="evenodd" clip-rule="evenodd" d="M11.0993 15.1202C11.0185 13.4503 11.0185 11.8512 11.4819 10.4321C11.9944 8.82296 13.0612 7.46469 14.6914 7.0222C15.8082 6.72055 17.4476 8.028 17.1867 9.36627C16.965 10.4429 15.8882 11.7103 14.158 11.8512C13.3529 11.9212 13.0112 12.5653 12.5078 12.9378C14.7614 12.7161 16.2208 11.8312 17.2367 10.9054C17.3876 11.6895 17.4884 13.0078 16.8742 13.4603C15.6674 14.3152 14.5506 13.6211 13.1312 14.0236C12.337 14.2552 11.8436 14.7585 11.0993 15.1202Z" fill="#003399"/>
<path fill-rule="evenodd" clip-rule="evenodd" d="M9.56 15.1202C9.65001 13.4503 9.64001 11.8512 9.18745 10.4321C8.67406 8.82296 7.6081 7.46469 5.97791 7.0222C4.86111 6.72055 3.21092 8.028 3.48262 9.36627C3.70431 10.4429 4.78027 11.7103 6.51131 11.8512C7.3064 11.9212 7.65811 12.5653 8.1615 12.9378C5.89707 12.7161 4.44856 11.8312 3.43261 10.9054C3.28176 11.6895 3.18091 13.0078 3.79432 13.4603C5.00196 14.3152 6.11876 13.6211 7.53726 14.0236C8.33235 14.2552 8.81491 14.7585 9.56 15.1202Z" fill="#003399"/>
<path fill-rule="evenodd" clip-rule="evenodd" d="M14.9225 17.6051V17.3334L15.1242 17.2834L14.9225 16.9818V16.4785L15.8285 17.7359L15.5068 17.8168L15.2851 17.5043L14.9225 17.6051V17.6051ZM14.9225 16.4785V16.9818L14.7817 16.7801L14.7217 17.3843L14.9225 17.3334V17.6051L14.6917 17.6559L14.6508 18.0276L14.3291 18.1084L14.5408 16.4685L14.8625 16.3876L14.9225 16.4785V16.4785ZM11.9247 18.4809V18.2192H11.9947C12.1055 18.2092 12.1764 18.1992 12.2064 18.1884C12.2464 18.1784 12.2864 18.1484 12.3072 18.1184C12.3372 18.0784 12.3472 18.0376 12.3472 17.9876C12.3372 17.9376 12.3272 17.8968 12.2964 17.8668C12.2764 17.8368 12.2364 17.8168 12.1964 17.8068C12.1564 17.7968 12.0655 17.7968 11.9247 17.8068V17.5451C12.0047 17.5451 12.0555 17.5351 12.0755 17.5351C12.1255 17.5251 12.1664 17.4943 12.1964 17.4643C12.2264 17.4343 12.2364 17.3943 12.2264 17.3434C12.2264 17.2934 12.2064 17.2534 12.1764 17.2326C12.1564 17.2026 12.1155 17.1826 12.0555 17.1826C12.0355 17.1826 11.9947 17.1826 11.9247 17.1926V16.931C12.0355 16.921 12.1155 16.921 12.1664 16.931C12.2264 16.931 12.2864 16.9518 12.3372 16.9818C12.3872 17.0018 12.4272 17.0418 12.4681 17.0918C12.4981 17.1426 12.5181 17.2026 12.5281 17.2734C12.5381 17.3434 12.5181 17.4143 12.4881 17.4743C12.4581 17.5351 12.4072 17.5851 12.3372 17.6251C12.4372 17.6459 12.5181 17.6859 12.5681 17.7459C12.6289 17.8068 12.6589 17.8768 12.6689 17.9676C12.6689 18.0376 12.6589 18.1084 12.6389 18.1784C12.6089 18.2492 12.5681 18.2992 12.5181 18.3501C12.4581 18.3901 12.3972 18.4201 12.3172 18.4401C12.2664 18.4501 12.1355 18.4601 11.9447 18.4809H11.9247V18.4809ZM13.8257 17.6351L14.1383 17.6759C14.1183 17.8468 14.0674 17.9876 13.9774 18.0884C13.8866 18.1784 13.7557 18.2492 13.5949 18.2792C13.3932 18.3092 13.2123 18.2692 13.0615 18.1584C12.9006 18.0376 12.8098 17.8668 12.7598 17.6251C12.7189 17.3743 12.7498 17.1626 12.8598 17.0018C12.9606 16.841 13.1215 16.7401 13.3332 16.7001C13.524 16.6693 13.6749 16.7001 13.8157 16.7901C13.8966 16.841 13.9666 16.921 14.0174 17.0418L13.7257 17.1626C13.6957 17.0918 13.6449 17.0318 13.5849 17.0018C13.514 16.9618 13.444 16.9518 13.3632 16.9618C13.2523 16.9818 13.1723 17.0418 13.1115 17.1326C13.0515 17.2326 13.0415 17.3643 13.0715 17.5451C13.1115 17.7359 13.1723 17.8668 13.2523 17.9376C13.3332 18.0076 13.434 18.0376 13.544 18.0176C13.6249 17.9976 13.6857 17.9576 13.7357 17.8968C13.7857 17.8368 13.8157 17.7459 13.8257 17.6351V17.6351ZM11.9247 16.931V17.1926C11.8847 17.1926 11.8438 17.2026 11.7938 17.2026L11.613 17.2234L11.643 17.5751L11.8538 17.5551C11.8738 17.5551 11.9047 17.5551 11.9247 17.5451V17.8068C11.9247 17.8068 11.9247 17.8068 11.9147 17.8068L11.673 17.8268L11.703 18.2392L11.9247 18.2192V18.4809L11.4213 18.5309L11.2804 16.9918L11.8947 16.9418C11.9047 16.931 11.9147 16.931 11.9247 16.931V16.931ZM9.98279 17.9476V17.6859C10.0528 17.6859 10.0936 17.6759 10.1236 17.6659C10.1636 17.6559 10.1936 17.6251 10.2245 17.5951C10.2445 17.5551 10.2545 17.5151 10.2545 17.4743C10.2645 17.4143 10.2445 17.3743 10.2137 17.3334C10.1836 17.2934 10.1436 17.2734 10.0936 17.2634C10.0628 17.2634 10.0328 17.2534 9.98279 17.2534V16.9918C10.1336 16.9918 10.2245 17.0018 10.2745 17.0218C10.3653 17.0418 10.4353 17.0918 10.4962 17.1726C10.5562 17.2534 10.5862 17.3534 10.5762 17.4743C10.5762 17.5651 10.5562 17.6459 10.5262 17.7159C10.4853 17.7759 10.4453 17.8268 10.3953 17.8668C10.3345 17.8968 10.2845 17.9168 10.2245 17.9376C10.1636 17.9476 10.0836 17.9476 9.98279 17.9476V17.9476ZM9.98279 16.9918V17.2534C9.95279 17.2534 9.91195 17.2534 9.86194 17.2534L9.71109 17.2434V17.6859H9.87194C9.91195 17.6859 9.95279 17.6859 9.98279 17.6859V17.9476C9.96279 17.9476 9.93195 17.9476 9.90195 17.9476H9.70109L9.69109 18.5309L9.37855 18.5209L9.40939 16.9818L9.90195 16.9918C9.93195 16.9918 9.96279 16.9918 9.98279 16.9918V16.9918ZM7.07495 17.7968V17.3234C7.16579 17.3434 7.2258 17.3434 7.2558 17.3434C7.29664 17.3334 7.32664 17.3234 7.35665 17.2934C7.37665 17.2634 7.39665 17.2326 7.40665 17.1826C7.41665 17.1326 7.40665 17.0918 7.38665 17.0518C7.36665 17.0118 7.32664 16.9918 7.2758 16.9718C7.2558 16.9618 7.18579 16.9518 7.07495 16.931V16.6693L7.20579 16.6901C7.36665 16.7201 7.47749 16.7501 7.5475 16.7901C7.61834 16.831 7.66835 16.891 7.69835 16.9718C7.72919 17.0418 7.73919 17.1326 7.71919 17.2234C7.69835 17.3334 7.64835 17.4243 7.56834 17.4843C7.4975 17.5451 7.38665 17.5751 7.2458 17.5751C7.30664 17.6251 7.35665 17.6759 7.38665 17.7259C7.42665 17.7868 7.46749 17.8768 7.5175 18.0076L7.64835 18.3401L7.2858 18.2692L7.12495 17.8968C7.10495 17.8668 7.09495 17.8268 7.07495 17.7968V17.7968ZM7.96005 16.841L8.26175 16.871L8.19174 17.7059C8.18174 17.8368 8.18174 17.9276 8.18174 17.9576C8.19174 18.0276 8.22175 18.0784 8.26175 18.1184C8.31259 18.1684 8.3726 18.1884 8.46344 18.1992C8.55429 18.2092 8.6243 18.1884 8.6643 18.1584C8.71514 18.1284 8.74514 18.0884 8.76515 18.0376C8.77515 17.9876 8.78515 17.8968 8.79515 17.7759L8.86599 16.921L9.17769 16.9518L9.10769 17.7559C9.09769 17.9476 9.07685 18.0784 9.04685 18.1484C9.02684 18.2192 8.98684 18.2892 8.946 18.3292C8.89599 18.3801 8.82599 18.4201 8.74514 18.4401C8.6743 18.4709 8.57429 18.4709 8.45344 18.4601C8.30259 18.4501 8.19174 18.4201 8.1209 18.3801C8.05089 18.3401 7.99005 18.2892 7.95005 18.2392C7.91004 18.1784 7.89004 18.1184 7.88004 18.0584C7.87004 17.9676 7.87004 17.8368 7.88004 17.6659L7.96005 16.841V16.841ZM5.51559 17.2934L5.5756 17.0418L6.22985 17.2126L6.06899 17.8068C5.98815 17.8568 5.88731 17.8868 5.74646 17.8968C5.61561 17.9068 5.49559 17.8968 5.37474 17.8668C5.21306 17.8268 5.08304 17.7559 4.9922 17.6659C4.89135 17.5651 4.83135 17.4443 4.80134 17.3134C4.78051 17.1726 4.78051 17.0318 4.82135 16.891C4.86135 16.7401 4.93136 16.6093 5.0322 16.4985C5.12305 16.3985 5.2439 16.3376 5.38475 16.3076C5.49559 16.2777 5.62561 16.2877 5.76729 16.3276C5.94815 16.3776 6.089 16.4485 6.16901 16.5593C6.24985 16.6593 6.28985 16.7901 6.27985 16.931L5.96815 16.911C5.96815 16.831 5.94815 16.7601 5.89731 16.7001C5.8473 16.6493 5.78729 16.5993 5.69645 16.5793C5.5656 16.5493 5.45475 16.5593 5.35391 16.6193C5.2539 16.6801 5.18306 16.8001 5.13305 16.9618C5.08304 17.1426 5.09304 17.2834 5.14305 17.3943C5.20306 17.5043 5.2939 17.5751 5.41475 17.6051C5.48476 17.6251 5.5456 17.6251 5.61561 17.6251C5.68645 17.6151 5.74646 17.5951 5.8073 17.5751L5.8573 17.3843L5.51559 17.2934V17.2934ZM7.07495 16.6693L6.55155 16.5793L6.28985 18.0984L6.59156 18.1484L6.7024 17.5151L6.77324 17.5251C6.84325 17.5351 6.89409 17.5551 6.92409 17.5651C6.9541 17.5851 6.9741 17.6151 7.0041 17.6459C7.0141 17.6759 7.04494 17.7259 7.07495 17.7968V17.3234C7.04494 17.3234 7.01411 17.3134 6.9741 17.3134L6.75324 17.2734L6.81325 16.891L7.05494 16.931C7.06494 16.931 7.07495 16.931 7.07495 16.931V16.6693V16.6693Z" fill="#003399"/>
<path fill-rule="evenodd" clip-rule="evenodd" d="M55.0281 14.7886V11.9512H56.2758V6.96138L55.0281 9.45628V3.22904H59.9279L61.1755 17.5751H56.2758V14.7886H55.0281V14.7886ZM55.0281 3.22904V9.45628L53.7805 11.9512H55.0281V14.7886H52.6737L51.7078 17.4243H48.6691V14.1444L52.0595 6.83055H51.3652L53.2971 3.22904H55.0281V3.22904ZM48.6691 8.008L50.1884 4.40649L48.6691 3.56152V8.008ZM36.5851 6.62973C36.656 6.21725 36.656 5.81476 36.5851 5.43228V6.62973ZM48.6691 3.56152V8.008L48.4682 8.49048C45.4695 6.34807 41.0423 8.29966 40.7906 10.5629C40.5398 12.927 42.3408 14.8386 46.9389 13.4103L45.3587 17.6351C39.2921 18.3092 36.9377 15.9052 36.5851 13.0986V11.5087C36.676 10.7746 36.8668 10.0604 37.1285 9.39628C40.1172 1.97159 44.9661 3.64152 46.808 3.50069L47.0797 2.67573L48.6691 3.56152V3.56152ZM48.6691 14.1444L47.1497 17.4243H48.6691V14.1444ZM31.132 17.3334C34.3815 16.6901 37.5711 12.7861 34.3715 9.67793C35.6192 9.0138 36.3943 7.81718 36.5851 6.62973V5.43228C36.3643 4.19483 35.4083 3.18904 33.6073 3.15904L31.132 3.10821V5.86476H32.1579C33.2547 5.86476 33.1139 8.70214 31.7454 8.70214H31.132V10.8754C32.6113 11.157 32.0879 13.2086 31.132 13.8428V17.3334V17.3334ZM36.5851 11.5087V13.0986C36.5251 12.5753 36.5251 12.042 36.5851 11.5087ZM26.8457 3.01821L24.8437 6.90138L25.7389 6.83055L23.3244 17.4243H30.2369C30.5386 17.4243 30.8303 17.3943 31.132 17.3334V13.8428C30.9611 13.9636 30.7694 14.0336 30.5786 14.0336H28.0933L28.9184 10.8446H30.7795C30.9103 10.8446 31.0311 10.8546 31.132 10.8754V8.70214H29.401L30.0952 5.86476H31.132V3.10821L26.8457 3.01821V3.01821Z" fill="#003399"/>
</g>
<defs>
<clipPath id="clip0">
<rect width="61.1765" height="20" fill="white"/>
</clipPath>
</defs>
</svg>
