<svg width="56" height="20" viewBox="0 0 56 20" fill="none" xmlns="http://www.w3.org/2000/svg">
<g clip-path="url(#clip0)">
<path fill-rule="evenodd" clip-rule="evenodd" d="M19.2629 0C19.9155 0.42897 20.5794 1.07951 20.5794 1.70755V12.7833C20.5794 13.4039 19.9693 14.2818 19.4148 14.6316C21.3726 14.6316 23.3313 14.6316 25.2891 14.6316C29.0901 14.4809 31.3951 13.164 31.671 10.4019C31.8637 8.46529 30.798 6.95931 28.178 6.1097C29.485 5.63242 30.1879 4.5929 30.2521 3.15939C30.3623 0.693849 27.3727 0 25.4921 0H19.2629V0ZM22.9086 5.93062V1.31273H24.712C26.7566 1.31273 27.7207 2.27562 27.7198 3.72746C27.7198 5.17929 26.3365 5.93062 24.6104 5.93062H22.9086ZM24.8309 13.2214H22.9086V7.24251H25.0869C28.3308 7.24251 29.3123 9.11499 29.1379 10.6451C28.9643 12.1761 27.594 13.2214 24.8309 13.2214V13.2214ZM36.8432 0H33.6514C34.3613 0.757986 34.6702 1.15614 34.6702 2.33143V12.4251C34.6702 13.5871 34.1339 14.3009 33.3633 14.8057H37.6112C36.9803 14.4359 36.3017 13.7104 36.3017 12.3977V3.48174C38.447 6.23214 40.5931 8.98338 42.7383 11.7346C43.955 13.2623 45.3652 14.5575 47.0097 15.572V2.27812C47.0097 0.947066 47.5695 0.438965 48.3175 0H44.1763C44.927 0.534755 45.3253 1.13781 45.3253 2.22565V11.1274L36.8432 0V0ZM50.6684 14.8057C51.5276 14.2585 51.9641 13.6163 51.9641 12.7833V2.21065C51.9641 0.961226 51.5883 0.678023 50.8507 0H55.753C54.9069 0.45729 54.3133 1.39103 54.3133 2.21065V12.7542C54.3133 13.563 54.8123 14.3043 55.4892 14.8057H50.6684V14.8057Z" fill="#007697"/>
<path fill-rule="evenodd" clip-rule="evenodd" d="M0.0133057 0H4.74553C4.4982 0.407313 4.31162 1.32273 4.78979 3.37845C5.21502 5.20595 6.44472 7.11174 7.72822 8.61855L6.11581 9.8888L0.0133057 2.52967V0L0.0133057 0ZM6.92375 0H15.2548V1.93745C14.61 1.57594 13.435 1.22694 11.7098 1.88913C8.92581 2.95864 8.68716 6.08888 8.68716 6.08888C7.14678 4.30303 6.13404 1.3752 6.92375 0V0ZM15.2548 4.50793V10.2753C13.3621 10.965 10.7066 9.17163 10.0392 7.04261C9.07248 3.95735 11.3514 2.8437 12.982 3.14939C14.2013 3.37762 14.9086 4.0748 15.2548 4.50793V4.50793ZM15.2548 11.2215V14.63H10.1486L11.1726 13.8228C10.5044 13.9011 9.19224 13.5996 8.55352 12.8291L6.75627 10.6618L8.39905 9.36654C9.40919 10.4352 10.3707 11.2024 10.914 11.4331C12.0786 11.9262 13.3899 12.1636 15.2548 11.2215ZM7.29779 14.63H1.72031L5.19506 11.8912C5.4797 12.2344 5.75393 12.5659 6.01515 12.8799C6.52716 13.498 6.95673 14.1069 7.29779 14.63ZM0.0992198 14.63H0.0133057V5.64158C1.3402 7.24251 3.03592 9.28741 4.55461 11.1191L0.0992198 14.63V14.63Z" fill="#EC6722"/>
<path fill-rule="evenodd" clip-rule="evenodd" d="M52.7521 18.8513L53.0385 18.8105C53.055 18.9163 53.0975 18.9971 53.173 19.0612C53.2485 19.1179 53.35 19.1504 53.4846 19.1504C53.6113 19.1504 53.7128 19.1179 53.7796 19.0696C53.8386 19.0213 53.8725 18.9563 53.8725 18.8838C53.8725 18.8272 53.8473 18.778 53.7883 18.7381C53.7458 18.7139 53.6451 18.6814 53.4932 18.6489C53.2824 18.5923 53.1314 18.5515 53.055 18.5115C52.9708 18.4707 52.9031 18.4224 52.8615 18.3582C52.8189 18.2933 52.8025 18.22 52.8025 18.1392C52.8025 18.0667 52.8189 17.9942 52.8528 17.9376C52.8866 17.8726 52.937 17.8243 52.996 17.7835C53.0385 17.751 53.1053 17.7185 53.1817 17.7027C53.2572 17.6785 53.3414 17.6627 53.4255 17.6627C53.5609 17.6627 53.6789 17.6869 53.7796 17.7185C53.8812 17.7593 53.9567 17.8077 54.007 17.8726C54.0495 17.9376 54.0834 18.0184 54.1085 18.1233L53.8221 18.1633C53.8048 18.075 53.7718 18.0101 53.7128 17.9617C53.6538 17.9209 53.5609 17.8968 53.4516 17.8968C53.3162 17.8968 53.2233 17.9126 53.1643 17.9534C53.1053 18.0017 53.0802 18.0509 53.0802 18.1067C53.0802 18.1392 53.0975 18.1717 53.114 18.2041C53.1392 18.2283 53.173 18.2524 53.2233 18.2766C53.2572 18.2849 53.3414 18.3091 53.4846 18.3499C53.6868 18.3982 53.83 18.439 53.9063 18.479C53.9905 18.5115 54.0582 18.5598 54.0998 18.6248C54.1424 18.6814 54.1675 18.7622 54.1675 18.8597C54.1675 18.948 54.1424 19.0371 54.0834 19.1179C54.033 19.1987 53.948 19.2637 53.8386 19.312C53.738 19.3528 53.6199 19.3769 53.4846 19.3769C53.2572 19.3769 53.0888 19.3286 52.9795 19.2395C52.8615 19.1504 52.7851 19.0213 52.7521 18.8513V18.8513ZM55.1621 18.3899C55.3556 18.3657 55.4988 18.3332 55.5994 18.3016C55.5994 18.2608 55.5994 18.2366 55.5994 18.2283C55.5994 18.115 55.5743 18.0342 55.5153 17.9859C55.4484 17.9293 55.3391 17.8968 55.1872 17.8968C55.1785 17.8968 55.1699 17.8968 55.1621 17.8968C55.044 17.8968 54.9512 17.9209 54.8922 17.9617C54.8245 18.0101 54.7741 18.0909 54.749 18.2041L54.4626 18.1717C54.4878 18.0509 54.5294 17.9617 54.5884 17.8884C54.6474 17.816 54.7316 17.7593 54.8496 17.7269C54.9425 17.6944 55.044 17.6702 55.1621 17.6702C55.1872 17.6627 55.2124 17.6627 55.2289 17.6627C55.3807 17.6627 55.4988 17.6869 55.5829 17.7185C55.6758 17.751 55.7435 17.7918 55.7851 17.8401C55.8277 17.8884 55.8606 17.9534 55.878 18.0259C55.8867 18.075 55.8945 18.1633 55.8945 18.2849V18.6489C55.8945 18.908 55.8945 19.0779 55.9118 19.142C55.9197 19.207 55.9457 19.2803 55.9873 19.3361H55.6836C55.6506 19.2803 55.6333 19.2153 55.6255 19.1345C55.5153 19.2237 55.4146 19.2878 55.3131 19.3203C55.2627 19.3361 55.2124 19.3528 55.1621 19.3611C55.1109 19.3686 55.0518 19.3769 54.9928 19.3769C54.808 19.3769 54.6648 19.3286 54.5633 19.2478C54.4626 19.1587 54.4114 19.0454 54.4114 18.908C54.4114 18.8272 54.4374 18.7539 54.4704 18.6897C54.5129 18.6248 54.5554 18.5681 54.6223 18.5273C54.6813 18.4873 54.749 18.4549 54.8245 18.439C54.8835 18.4224 54.9677 18.4065 55.0857 18.3982C55.1108 18.3899 55.136 18.3899 55.1621 18.3899V18.3899ZM55.1621 19.1504C55.2376 19.142 55.3052 19.1179 55.3643 19.0854C55.4484 19.0454 55.5153 18.9804 55.5578 18.8997C55.5829 18.8355 55.5994 18.7381 55.5994 18.6164V18.5198C55.4988 18.5598 55.3556 18.5923 55.1621 18.6164C55.1534 18.6164 55.136 18.6248 55.1282 18.6248C55.0102 18.6406 54.926 18.6573 54.8748 18.6814C54.8245 18.6972 54.7906 18.7297 54.7655 18.7705C54.7316 18.8105 54.7238 18.8513 54.7238 18.8997C54.7238 18.9721 54.749 19.0371 54.808 19.0854C54.867 19.1345 54.9512 19.1587 55.0692 19.1587C55.103 19.1587 55.1282 19.1587 55.1621 19.1504V19.1504ZM0.10498 19.3361V17.0797H0.577074L1.13248 18.6814C1.18368 18.8272 1.22534 18.9405 1.24269 19.0129C1.27654 18.9321 1.31819 18.8105 1.36853 18.6489L1.93348 17.0797H2.35437V19.3361H2.0515V17.452L1.36853 19.3361H1.09082L0.408717 17.4195V19.3361H0.10498V19.3361ZM4.63847 19.3361V17.0797H4.93266V19.3361H4.63847ZM3.50944 18.3657H3.98934C3.97285 18.2283 3.93901 18.1233 3.88 18.0509C3.78714 17.9451 3.66911 17.8968 3.52592 17.8968C3.51725 17.8968 3.51725 17.8968 3.50944 17.8968C3.38273 17.8968 3.27339 17.9376 3.18921 18.0184C3.09635 18.1067 3.04602 18.22 3.03734 18.3657H3.50944V18.3657ZM3.50944 19.1504C3.51725 19.1504 3.52592 19.1504 3.5346 19.1504C3.64395 19.1504 3.72813 19.1179 3.80363 19.0696C3.88 19.0129 3.93901 18.9321 3.98934 18.8105L4.2844 18.843C4.23407 19.0129 4.14989 19.142 4.02319 19.2395C3.89648 19.3286 3.72813 19.3769 3.5346 19.3769C3.52592 19.3769 3.51725 19.3769 3.50944 19.3769C3.27339 19.3686 3.079 19.2961 2.94449 19.1504C2.79262 19.0046 2.7258 18.803 2.7258 18.5357C2.7258 18.2608 2.79262 18.0425 2.94449 17.8968C3.08768 17.7435 3.28207 17.6702 3.50944 17.6627C3.51725 17.6627 3.51725 17.6627 3.51725 17.6627C3.74548 17.6627 3.93033 17.7435 4.07352 17.8884C4.22539 18.0342 4.29308 18.245 4.29308 18.5198C4.29308 18.5357 4.29308 18.5598 4.29308 18.5923H3.50944H3.01999C3.02866 18.7705 3.08768 18.908 3.18053 19.0046C3.27339 19.0937 3.38273 19.142 3.50944 19.1504ZM7.19159 19.9675L7.15775 19.7084C7.22457 19.7243 7.27577 19.7326 7.32611 19.7326C7.38512 19.7326 7.43545 19.7243 7.47797 19.7001C7.51963 19.6843 7.54566 19.6518 7.57083 19.6118C7.596 19.5868 7.62117 19.5227 7.66369 19.4094C7.66369 19.3928 7.6715 19.3686 7.68885 19.3444L7.03973 17.7027H7.35127L7.70534 18.6489C7.75568 18.7705 7.7982 18.8997 7.83205 19.0288C7.86502 18.8997 7.89887 18.778 7.95007 18.6573L8.31195 17.7027H8.59833L7.95007 19.3686C7.88238 19.5469 7.83205 19.6685 7.78952 19.7409C7.73919 19.8301 7.68018 19.8942 7.61249 19.935C7.54566 19.9833 7.4693 20 7.37644 20C7.31743 20 7.25842 19.9917 7.19159 19.9675V19.9675ZM6.02872 18.3899C6.22224 18.3657 6.36543 18.3332 6.46697 18.3016C6.46697 18.2608 6.46697 18.2366 6.46697 18.2283C6.46697 18.115 6.4418 18.0342 6.38279 17.9859C6.30642 17.9293 6.19707 17.8968 6.05388 17.8968C6.04521 17.8968 6.03739 17.8968 6.02872 17.8968C5.90201 17.8968 5.81784 17.9209 5.75015 17.9617C5.69113 18.0101 5.6408 18.0909 5.60696 18.2041L5.32925 18.1717C5.35442 18.0509 5.39694 17.9617 5.45596 17.8884C5.51497 17.816 5.59915 17.7593 5.70849 17.7269C5.80135 17.6944 5.91069 17.6702 6.02872 17.6702C6.04521 17.6627 6.07037 17.6627 6.09641 17.6627C6.23873 17.6627 6.35675 17.6869 6.44961 17.7185C6.54247 17.751 6.61016 17.7918 6.65181 17.8401C6.69433 17.8884 6.72818 17.9534 6.74467 18.0259C6.75335 18.075 6.75335 18.1633 6.75335 18.2849V18.6489C6.75335 18.908 6.76202 19.0779 6.77851 19.142C6.78719 19.207 6.81236 19.2803 6.8462 19.3361H6.54247C6.5173 19.2803 6.50081 19.2153 6.49213 19.1345C6.38279 19.2237 6.28125 19.2878 6.18058 19.3203C6.12938 19.3361 6.07905 19.3528 6.02872 19.3611C5.9697 19.3686 5.91937 19.3769 5.86036 19.3769C5.67465 19.3769 5.53146 19.3286 5.42992 19.2478C5.32925 19.1587 5.27892 19.0454 5.27892 18.908C5.27892 18.8272 5.29541 18.7539 5.33793 18.6897C5.37091 18.6248 5.42211 18.5681 5.48112 18.5273C5.54794 18.4873 5.61563 18.4549 5.69113 18.439C5.75015 18.4224 5.83433 18.4065 5.95235 18.3982C5.97838 18.3899 6.00355 18.3899 6.02872 18.3899V18.3899ZM6.02872 19.1504C6.09641 19.142 6.16323 19.1179 6.23092 19.0854C6.3151 19.0454 6.37411 18.9804 6.41576 18.8997C6.44961 18.8355 6.46697 18.7381 6.46697 18.6164V18.5198C6.36543 18.5598 6.22224 18.5923 6.02872 18.6164C6.01136 18.6164 6.00355 18.6248 5.99487 18.6248C5.87685 18.6406 5.79267 18.6573 5.74234 18.6814C5.69113 18.6972 5.64948 18.7297 5.62431 18.7705C5.59915 18.8105 5.59047 18.8513 5.59047 18.8997C5.59047 18.9721 5.61563 19.0371 5.67465 19.0854C5.73366 19.1345 5.81784 19.1587 5.92718 19.1587C5.96103 19.1587 5.99487 19.1587 6.02872 19.1504ZM14.1767 19.3361V17.0797H14.4969L15.7353 18.8513V17.0797H16.0303V19.3361H15.7101L14.4804 17.5653V19.3361H14.1767V19.3361ZM12.5 19.3361V17.7027H12.7951V19.3361H12.5V19.3361ZM12.5 17.4037V17.0797H12.7951V17.4037H12.5ZM10.6716 19.3361V17.7027H10.9328V17.9376C11.0586 17.7593 11.2443 17.6627 11.4804 17.6627C11.5819 17.6627 11.6739 17.6869 11.7581 17.7185C11.8422 17.751 11.9099 17.8002 11.9525 17.8568C11.9941 17.9126 12.028 17.9859 12.0444 18.0667C12.0531 18.115 12.0618 18.2041 12.0618 18.3332V19.3361H11.7667V18.3416C11.7667 18.2283 11.7581 18.1475 11.7329 18.0909C11.7164 18.0342 11.6739 17.9859 11.6149 17.9534C11.5559 17.9209 11.4968 17.9051 11.4127 17.9051C11.2946 17.9051 11.1853 17.9451 11.1011 18.0184C11.0083 18.0909 10.9666 18.2366 10.9666 18.4465V19.3361H10.6716V19.3361ZM9.49999 18.3899C9.69352 18.3657 9.83758 18.3332 9.93824 18.3016C9.93824 18.2608 9.93824 18.2366 9.93824 18.2283C9.93824 18.115 9.91308 18.0342 9.85406 17.9859C9.77856 17.9293 9.66835 17.8968 9.52516 17.8968C9.51735 17.8968 9.50867 17.8968 9.49999 17.8968C9.37416 17.8968 9.2813 17.9209 9.22229 17.9617C9.16328 18.0101 9.11295 18.0909 9.0791 18.2041L8.80053 18.1717C8.8257 18.0509 8.86822 17.9617 8.92723 17.8884C8.98625 17.816 9.07042 17.7593 9.17977 17.7269C9.27263 17.6944 9.38197 17.6702 9.49999 17.6702C9.51735 17.6627 9.54252 17.6627 9.56768 17.6627C9.71087 17.6627 9.8289 17.6869 9.92175 17.7185C10.0146 17.751 10.0814 17.7918 10.124 17.8401C10.1656 17.8884 10.1908 17.9534 10.2159 18.0259C10.2246 18.075 10.2246 18.1633 10.2246 18.2849V18.6489C10.2246 18.908 10.2333 19.0779 10.242 19.142C10.2585 19.207 10.2836 19.2803 10.3175 19.3361H10.0146C9.98858 19.2803 9.96341 19.2153 9.9556 19.1345C9.85406 19.2237 9.75253 19.2878 9.65186 19.3203C9.60153 19.3361 9.5512 19.3528 9.49999 19.3611C9.44098 19.3686 9.39065 19.3769 9.33164 19.3769C9.14592 19.3769 9.00273 19.3286 8.90207 19.2478C8.80053 19.1587 8.7502 19.0454 8.7502 18.908C8.7502 18.8272 8.76669 18.7539 8.80921 18.6897C8.84306 18.6248 8.89339 18.5681 8.9524 18.5273C9.02009 18.4873 9.08691 18.4549 9.16328 18.439C9.22229 18.4224 9.30647 18.4065 9.41582 18.3982C9.44966 18.3899 9.47483 18.3899 9.49999 18.3899V18.3899ZM9.49999 19.1504C9.56768 19.142 9.63537 19.1179 9.69352 19.0854C9.78638 19.0454 9.84539 18.9804 9.88791 18.8997C9.92175 18.8355 9.93824 18.7381 9.93824 18.6164V18.5198C9.83758 18.5598 9.68571 18.5923 9.49999 18.6164C9.48351 18.6164 9.47483 18.6248 9.46615 18.6248C9.34813 18.6406 9.26395 18.6573 9.21361 18.6814C9.16328 18.6972 9.12076 18.7297 9.09559 18.7705C9.07042 18.8105 9.05394 18.8513 9.05394 18.8997C9.05394 18.9721 9.08691 19.0371 9.14592 19.0854C9.20494 19.1345 9.28911 19.1587 9.39933 19.1587C9.43317 19.1587 9.46615 19.1587 9.49999 19.1504ZM17.2097 18.3657H17.6905C17.674 18.2283 17.6401 18.1233 17.5811 18.0509C17.4883 17.9451 17.3702 17.8968 17.2184 17.8968C17.2184 17.8968 17.2184 17.8968 17.2097 17.8968C17.0839 17.8968 16.9745 17.9376 16.8895 18.0184C16.7975 18.1067 16.7463 18.22 16.7385 18.3657H17.2097ZM17.2097 19.1504C17.2184 19.1504 17.2271 19.1504 17.2357 19.1504C17.3451 19.1504 17.4293 19.1179 17.5048 19.0696C17.5811 19.0129 17.6401 18.9321 17.6818 18.8105L17.9855 18.843C17.9343 19.0129 17.8502 19.142 17.7243 19.2395C17.5976 19.3286 17.4293 19.3769 17.2357 19.3769C17.2271 19.3769 17.2184 19.3769 17.2097 19.3769C16.9745 19.3686 16.7801 19.2961 16.6369 19.1504C16.4938 19.0046 16.4183 18.803 16.4183 18.5357C16.4183 18.2608 16.4938 18.0425 16.6456 17.8968C16.7888 17.7435 16.9823 17.6702 17.2097 17.6627H17.2184C17.4457 17.6627 17.6315 17.7435 17.7747 17.8884C17.9178 18.0342 17.9933 18.245 17.9933 18.5198C17.9933 18.5357 17.9933 18.5598 17.9933 18.5923H17.2097H16.7211C16.7298 18.7705 16.7801 18.908 16.8817 19.0046C16.9658 19.0937 17.0839 19.142 17.2097 19.1504ZM18.9965 19.1104C19.1311 19.1104 19.2404 19.0612 19.3333 18.9646C19.4261 18.8672 19.4686 18.7139 19.4686 18.5032C19.4686 18.3016 19.4174 18.1475 19.3254 18.0509C19.2404 17.9451 19.1311 17.8968 18.9965 17.8968C18.8612 17.8968 18.7605 17.9451 18.6676 18.0425C18.5748 18.1475 18.5331 18.2933 18.5331 18.4957C18.5331 18.7056 18.5748 18.8597 18.6676 18.9646C18.7518 19.0612 18.8612 19.1104 18.9965 19.1104ZM18.9965 19.7734C19.1146 19.7651 19.2074 19.7409 19.2742 19.6926C19.3506 19.6435 19.3923 19.571 19.4261 19.4819C19.4348 19.4252 19.4435 19.3045 19.4435 19.1262C19.3254 19.2637 19.1736 19.3286 18.9965 19.3361C18.9879 19.3361 18.9801 19.3361 18.9714 19.3361C18.7353 19.3361 18.5583 19.2553 18.4238 19.0937C18.2971 18.9321 18.2381 18.7381 18.2381 18.5115C18.2381 18.3582 18.2632 18.2125 18.3222 18.0825C18.3813 17.9451 18.4654 17.8485 18.5748 17.7752C18.6928 17.7027 18.8195 17.6627 18.9714 17.6627C18.9801 17.6627 18.9879 17.6627 18.9965 17.6627C19.1901 17.6702 19.3419 17.751 19.4686 17.8968V17.7027H19.7377V19.1179C19.7377 19.3686 19.7125 19.5552 19.6535 19.6601C19.6031 19.7651 19.519 19.8459 19.4009 19.9109C19.2916 19.9675 19.1562 20 18.9965 20C18.9879 20 18.9801 20 18.9627 20C18.7605 20 18.6008 19.9592 18.4741 19.87C18.3474 19.7809 18.2884 19.6518 18.2884 19.4744L18.5748 19.5144C18.5835 19.5952 18.6173 19.6601 18.6676 19.6926C18.744 19.7493 18.8447 19.7734 18.9627 19.7734C18.9801 19.7734 18.9879 19.7734 18.9965 19.7734V19.7734ZM25.6788 19.3361V17.0797H25.9903V18.2041L27.1532 17.0797H27.5741L26.5882 17.9942L27.6166 19.3361H27.2122L26.3695 18.1958L25.9903 18.5598V19.3361H25.6788ZM23.9006 19.3361V19.0213H24.2295V19.3361C24.2295 19.4577 24.2121 19.5469 24.1618 19.6193C24.1193 19.6926 24.0525 19.7493 23.9596 19.7809L23.8841 19.6685C23.9431 19.6435 23.9848 19.6035 24.0186 19.5552C24.0438 19.506 24.0603 19.4336 24.0603 19.3361H23.9006V19.3361ZM23.0996 19.3361V17.7027H23.3868V19.3361H23.0996ZM23.0996 17.4037V17.0797H23.3868V17.4037H23.0996ZM21.9966 19.3361V17.7027H22.2569V17.9534C22.3246 17.8318 22.3836 17.7593 22.4427 17.7185C22.4939 17.6869 22.5607 17.6627 22.6284 17.6627C22.7212 17.6627 22.8219 17.6944 22.9234 17.751L22.8219 18.0101C22.7542 17.9701 22.6787 17.9534 22.611 17.9534C22.552 17.9534 22.4939 17.9701 22.4427 18.0101C22.3923 18.0425 22.3585 18.0909 22.3333 18.1558C22.2995 18.2608 22.283 18.3657 22.283 18.479V19.3361H21.9966V19.3361ZM20.8667 18.3657H21.3388C21.3301 18.2283 21.2971 18.1233 21.2381 18.0509C21.1453 17.9451 21.0186 17.8968 20.8754 17.8968H20.8667C20.7409 17.8968 20.6306 17.9376 20.5387 18.0184C20.4545 18.1067 20.4033 18.22 20.3955 18.3657H20.8667ZM20.8667 19.1504C20.8754 19.1504 20.8841 19.1504 20.8927 19.1504C20.9934 19.1504 21.0863 19.1179 21.1618 19.0696C21.2381 19.0129 21.2971 18.9321 21.3388 18.8105L21.6338 18.843C21.5922 19.0129 21.5071 19.142 21.3726 19.2395C21.2459 19.3286 21.0863 19.3769 20.8927 19.3769C20.8841 19.3769 20.8754 19.3769 20.8667 19.3769C20.6306 19.3686 20.4371 19.2961 20.2939 19.1504C20.1507 19.0046 20.0752 18.803 20.0752 18.5357C20.0752 18.2608 20.1507 18.0425 20.3026 17.8968C20.4458 17.7435 20.6306 17.6702 20.8667 17.6627C20.8667 17.6627 20.8667 17.6627 20.8754 17.6627C21.1027 17.6627 21.2885 17.7435 21.4316 17.8884C21.5748 18.0342 21.6503 18.245 21.6503 18.5198C21.6503 18.5357 21.6503 18.5598 21.6425 18.5923H20.8667H20.3781C20.3868 18.7705 20.4371 18.908 20.5387 19.0046C20.6228 19.0937 20.7322 19.142 20.8667 19.1504ZM28.5261 18.3657H29.0068C28.9904 18.2283 28.9565 18.1233 28.8975 18.0509C28.8046 17.9451 28.6866 17.8968 28.5347 17.8968C28.5347 17.8968 28.5347 17.8968 28.5261 17.8968C28.4002 17.8968 28.2909 17.9376 28.2067 18.0184C28.1139 18.1067 28.0627 18.22 28.0548 18.3657H28.5261ZM28.5261 19.1504C28.5347 19.1504 28.5434 19.1504 28.5521 19.1504C28.6528 19.1504 28.7456 19.1179 28.8211 19.0696C28.8975 19.0129 28.9565 18.9321 28.9982 18.8105L29.3019 18.843C29.2507 19.0129 29.1665 19.142 29.0407 19.2395C28.9053 19.3286 28.7456 19.3769 28.5521 19.3769C28.5434 19.3769 28.5347 19.3769 28.5261 19.3769C28.2909 19.3686 28.0965 19.2961 27.962 19.1504C27.8188 19.0046 27.7433 18.803 27.7433 18.5357C27.7433 18.2608 27.8188 18.0425 27.9707 17.8968C28.1052 17.7435 28.2987 17.6702 28.5261 17.6627H28.5347C28.7621 17.6627 28.9478 17.7435 29.091 17.8884C29.2342 18.0342 29.3106 18.245 29.3106 18.5198C29.3106 18.5357 29.3106 18.5598 29.3106 18.5923H28.5261H28.0462C28.0462 18.7705 28.0965 18.908 28.198 19.0046C28.2822 19.0937 28.3916 19.142 28.5261 19.1504V19.1504ZM30.3806 17.6702C30.3971 17.6627 30.4058 17.6627 30.4136 17.6627C30.5238 17.6627 30.6166 17.6869 30.7173 17.7269C30.8102 17.7677 30.8857 17.8243 30.9447 17.8968C31.0037 17.9701 31.054 18.0584 31.0879 18.1633C31.1217 18.2691 31.1382 18.3824 31.1382 18.4957C31.1382 18.778 31.0627 18.9971 30.9195 19.142C30.7763 19.2961 30.5993 19.3769 30.3971 19.3769C30.3971 19.3769 30.3884 19.3769 30.3806 19.3769C30.1949 19.3686 30.043 19.2878 29.925 19.1345V19.3361H29.6638V17.0797H29.9502V17.8884C30.0604 17.751 30.2114 17.6702 30.3806 17.6702V17.6702ZM30.3806 19.1504C30.5064 19.142 30.6166 19.0937 30.7008 18.9888C30.7928 18.8838 30.844 18.7297 30.844 18.5198C30.844 18.3091 30.8015 18.1475 30.7086 18.0509C30.6245 17.9451 30.5151 17.8968 30.3884 17.8968C30.3884 17.8968 30.3884 17.8968 30.3806 17.8968C30.2626 17.8968 30.1524 17.9451 30.0604 18.0509C29.9675 18.1558 29.925 18.3091 29.925 18.5115C29.925 18.7056 29.9502 18.843 30.0092 18.9321C30.102 19.0779 30.2201 19.1504 30.3806 19.1504V19.1504ZM33.3208 19.3361V17.7027H33.5733V17.9376C33.7 17.7593 33.8857 17.6627 34.1218 17.6627C34.2224 17.6627 34.3153 17.6869 34.3995 17.7185C34.4923 17.751 34.5513 17.8002 34.5939 17.8568C34.6355 17.9126 34.6694 17.9859 34.6859 18.0667C34.6945 18.115 34.7032 18.2041 34.7032 18.3332V19.3361H34.4168V18.3416C34.4168 18.2283 34.3995 18.1475 34.383 18.0909C34.3578 18.0342 34.3153 17.9859 34.2563 17.9534C34.2059 17.9209 34.1383 17.9051 34.0541 17.9051C33.9361 17.9051 33.8267 17.9451 33.7425 18.0184C33.6497 18.0909 33.6072 18.2366 33.6072 18.4465V19.3361H33.3208V19.3361ZM32.1414 18.3899C32.3349 18.3657 32.4781 18.3332 32.5797 18.3016C32.5797 18.2608 32.5797 18.2366 32.5797 18.2283C32.5797 18.115 32.5545 18.0342 32.4955 17.9859C32.4191 17.9293 32.3098 17.8968 32.1666 17.8968C32.1579 17.8968 32.1501 17.8968 32.1414 17.8968C32.0147 17.8968 31.9305 17.9209 31.8628 17.9617C31.8038 18.0101 31.7535 18.0909 31.7196 18.2041L31.4419 18.1717C31.4671 18.0509 31.5096 17.9617 31.5686 17.8884C31.6277 17.816 31.7118 17.7593 31.8212 17.7269C31.914 17.6944 32.0234 17.6702 32.1414 17.6702C32.1579 17.6627 32.1831 17.6627 32.2091 17.6627C32.3523 17.6627 32.4703 17.6869 32.5623 17.7185C32.6552 17.751 32.7228 17.7918 32.7645 17.8401C32.807 17.8884 32.8409 17.9534 32.8574 18.0259C32.866 18.075 32.866 18.1633 32.866 18.2849V18.6489C32.866 18.908 32.8747 19.0779 32.8912 19.142C32.8999 19.207 32.925 19.2803 32.9589 19.3361H32.6552C32.63 19.2803 32.6135 19.2153 32.6048 19.1345C32.4955 19.2237 32.3939 19.2878 32.2933 19.3203C32.2429 19.3361 32.1917 19.3528 32.1414 19.3611C32.0824 19.3686 32.0321 19.3769 31.973 19.3769C31.7873 19.3769 31.6441 19.3286 31.5435 19.2478C31.4419 19.1587 31.3916 19.0454 31.3916 18.908C31.3916 18.8272 31.4081 18.7539 31.4506 18.6897C31.4845 18.6248 31.5348 18.5681 31.5938 18.5273C31.6615 18.4873 31.7283 18.4549 31.8038 18.439C31.8628 18.4224 31.9479 18.4065 32.0659 18.3982C32.0911 18.3899 32.1162 18.3899 32.1414 18.3899ZM32.1414 19.1504C32.2091 19.142 32.2759 19.1179 32.3349 19.0854C32.4278 19.0454 32.4868 18.9804 32.5293 18.8997C32.5623 18.8355 32.5797 18.7381 32.5797 18.6164V18.5198C32.4781 18.5598 32.3271 18.5923 32.1414 18.6164C32.124 18.6164 32.1162 18.6248 32.1076 18.6248C31.9895 18.6406 31.9054 18.6573 31.855 18.6814C31.8038 18.6972 31.7622 18.7297 31.737 18.7705C31.7118 18.8105 31.7032 18.8513 31.7032 18.8997C31.7032 18.9721 31.7283 19.0371 31.7873 19.0854C31.8463 19.1345 31.9305 19.1587 32.0399 19.1587C32.0737 19.1587 32.1076 19.1587 32.1414 19.1504V19.1504ZM35.7984 19.1104C35.9329 19.1104 36.0423 19.0612 36.1273 18.9646C36.2193 18.8672 36.2618 18.7139 36.2618 18.5032C36.2618 18.3016 36.2193 18.1475 36.1273 18.0509C36.0344 17.9451 35.9242 17.8968 35.7984 17.8968C35.7984 17.8968 35.7984 17.8968 35.7897 17.8968C35.6639 17.8968 35.5537 17.9451 35.4617 18.0425C35.3766 18.1475 35.3263 18.2933 35.3263 18.4957C35.3263 18.7056 35.3766 18.8597 35.4617 18.9646C35.5537 19.0612 35.6639 19.1104 35.7984 19.1104ZM35.7984 19.7734C35.9164 19.7651 36.0093 19.7409 36.0761 19.6926C36.1438 19.6435 36.1941 19.571 36.2193 19.4819C36.2366 19.4252 36.2445 19.3045 36.2445 19.1262C36.1186 19.2637 35.9754 19.3286 35.7984 19.3361C35.7897 19.3361 35.7819 19.3361 35.7732 19.3361C35.5372 19.3361 35.3515 19.2553 35.2256 19.0937C35.0989 18.9321 35.0312 18.7381 35.0312 18.5115C35.0312 18.3582 35.0651 18.2125 35.1241 18.0825C35.1831 17.9451 35.2673 17.8485 35.3766 17.7752C35.4868 17.7027 35.6214 17.6627 35.7732 17.6627C35.7819 17.6627 35.7897 17.6627 35.7984 17.6627C35.9841 17.6702 36.1438 17.751 36.2705 17.8968V17.7027H36.5395V19.1179C36.5395 19.3686 36.5057 19.5552 36.4553 19.6601C36.3963 19.7651 36.3121 19.8459 36.1941 19.9109C36.0848 19.9675 35.9581 20 35.7984 20C35.7897 20 35.7732 20 35.7646 20C35.5623 20 35.394 19.9592 35.276 19.87C35.1493 19.7809 35.0903 19.6518 35.0903 19.4744L35.3688 19.5144C35.3853 19.5952 35.4192 19.6601 35.4695 19.6926C35.5459 19.7493 35.6378 19.7734 35.7646 19.7734C35.7732 19.7734 35.7897 19.7734 35.7984 19.7734V19.7734ZM37.6269 19.1104C37.7614 19.1104 37.8707 19.0612 37.9549 18.9646C38.0478 18.8672 38.0903 18.7139 38.0903 18.5032C38.0903 18.3016 38.0478 18.1475 37.9549 18.0509C37.8629 17.9451 37.7536 17.8968 37.6269 17.8968H37.6182C37.4915 17.8968 37.3822 17.9451 37.2902 18.0425C37.2051 18.1475 37.1548 18.2933 37.1548 18.4957C37.1548 18.7056 37.2051 18.8597 37.2902 18.9646C37.3822 19.0612 37.4915 19.1104 37.6269 19.1104ZM37.6269 19.7734C37.7449 19.7651 37.8378 19.7409 37.9046 19.6926C37.9723 19.6435 38.0226 19.571 38.0478 19.4819C38.0651 19.4252 38.073 19.3045 38.073 19.1262C37.9471 19.2637 37.8039 19.3286 37.6269 19.3361C37.6182 19.3361 37.6095 19.3361 37.6017 19.3361C37.3657 19.3361 37.18 19.2553 37.0541 19.0937C36.9274 18.9321 36.8597 18.7381 36.8597 18.5115C36.8597 18.3582 36.8936 18.2125 36.9526 18.0825C37.0116 17.9451 37.0958 17.8485 37.2051 17.7752C37.3153 17.7027 37.4499 17.6627 37.6017 17.6627C37.6095 17.6627 37.6182 17.6627 37.6269 17.6627C37.8126 17.6702 37.9723 17.751 38.099 17.8968V17.7027H38.3593V19.1179C38.3593 19.3686 38.335 19.5552 38.2838 19.6601C38.2248 19.7651 38.1406 19.8459 38.0226 19.9109C37.9133 19.9675 37.7788 20 37.6269 20C37.6182 20 37.6017 20 37.593 20C37.3908 20 37.2225 19.9592 37.1045 19.87C36.9778 19.7809 36.9109 19.6518 36.9188 19.4744L37.1973 19.5144C37.2138 19.5952 37.2477 19.6601 37.298 19.6926C37.3657 19.7493 37.4663 19.7734 37.593 19.7734C37.6017 19.7734 37.6182 19.7734 37.6269 19.7734V19.7734ZM39.4467 18.3899C39.6411 18.3657 39.7921 18.3332 39.885 18.3016C39.885 18.2608 39.885 18.2366 39.885 18.2283C39.885 18.115 39.8598 18.0342 39.8095 17.9859C39.7331 17.9293 39.6237 17.8968 39.4806 17.8968C39.4719 17.8968 39.4554 17.8968 39.4467 17.8968C39.3287 17.8968 39.2358 17.9209 39.1768 17.9617C39.11 18.0101 39.0675 18.0909 39.0336 18.2041L38.7472 18.1717C38.7811 18.0509 38.8236 17.9617 38.8739 17.8884C38.933 17.816 39.0258 17.7593 39.1352 17.7269C39.228 17.6944 39.3287 17.6702 39.4467 17.6702C39.4719 17.6627 39.497 17.6627 39.5222 17.6627C39.6663 17.6627 39.7843 17.6869 39.8763 17.7185C39.9691 17.751 40.0281 17.7918 40.0785 17.8401C40.121 17.8884 40.1462 17.9534 40.1627 18.0259C40.1713 18.075 40.18 18.1633 40.18 18.2849V18.6489C40.18 18.908 40.1887 19.0779 40.1965 19.142C40.2139 19.207 40.2304 19.2803 40.2729 19.3361H39.9691C39.9353 19.2803 39.9188 19.2153 39.9101 19.1345C39.8008 19.2237 39.6992 19.2878 39.5986 19.3203C39.5561 19.3361 39.497 19.3528 39.4467 19.3611C39.3964 19.3686 39.3374 19.3769 39.287 19.3769C39.0926 19.3769 38.9494 19.3286 38.8488 19.2478C38.7559 19.1587 38.7056 19.0454 38.7056 18.908C38.7056 18.8272 38.7221 18.7539 38.7559 18.6897C38.7984 18.6248 38.8488 18.5681 38.9078 18.5273C38.9668 18.4873 39.0423 18.4549 39.1178 18.439C39.169 18.4224 39.261 18.4065 39.3712 18.3982C39.3964 18.3899 39.4215 18.3899 39.4467 18.3899ZM39.4467 19.1504C39.5222 19.142 39.5899 19.1179 39.6489 19.0854C39.7331 19.0454 39.8008 18.9804 39.8424 18.8997C39.8685 18.8355 39.885 18.7381 39.885 18.6164V18.5198C39.7843 18.5598 39.6411 18.5923 39.4467 18.6164C39.438 18.6164 39.4302 18.6248 39.4129 18.6248C39.2948 18.6406 39.2107 18.6573 39.1603 18.6814C39.1178 18.6972 39.0762 18.7297 39.051 18.7705C39.0258 18.8105 39.0085 18.8513 39.0085 18.8997C39.0085 18.9721 39.0423 19.0371 39.1013 19.0854C39.1517 19.1345 39.2445 19.1587 39.3539 19.1587C39.3877 19.1587 39.4215 19.1587 39.4467 19.1504ZM42.4546 19.3361V17.7027H42.7167V17.9376C42.8425 17.7593 43.0195 17.6627 43.2556 17.6627C43.3562 17.6627 43.4578 17.6869 43.5419 17.7185C43.6261 17.751 43.6938 17.8002 43.7355 17.8568C43.778 17.9126 43.8032 17.9859 43.8197 18.0667C43.837 18.115 43.837 18.2041 43.837 18.3332V19.3361H43.5506V18.3416C43.5506 18.2283 43.5419 18.1475 43.5168 18.0909C43.4916 18.0342 43.4578 17.9859 43.3988 17.9534C43.3397 17.9209 43.2721 17.9051 43.1966 17.9051C43.0699 17.9051 42.9692 17.9451 42.8763 18.0184C42.7835 18.0909 42.7418 18.2366 42.7418 18.4465V19.3361H42.4546V19.3361ZM41.2752 18.3899C41.4687 18.3657 41.6206 18.3332 41.7135 18.3016C41.7135 18.2608 41.7135 18.2366 41.7135 18.2283C41.7135 18.115 41.6883 18.0342 41.638 17.9859C41.5616 17.9293 41.4522 17.8968 41.309 17.8968C41.2917 17.8968 41.2839 17.8968 41.2752 17.8968C41.1572 17.8968 41.0643 17.9209 41.0053 17.9617C40.9385 18.0101 40.896 18.0909 40.8621 18.2041L40.5757 18.1717C40.6009 18.0509 40.6434 17.9617 40.7024 17.8884C40.7615 17.816 40.8543 17.7593 40.9637 17.7269C41.0565 17.6944 41.1572 17.6702 41.2752 17.6702C41.3004 17.6627 41.3255 17.6627 41.3516 17.6627C41.4948 17.6627 41.6119 17.6869 41.7048 17.7185C41.789 17.751 41.8566 17.7918 41.8992 17.8401C41.9495 17.8884 41.9747 17.9534 41.9912 18.0259C41.9998 18.075 42.0085 18.1633 42.0085 18.2849V18.6489C42.0085 18.908 42.0172 19.0779 42.025 19.142C42.0337 19.207 42.0588 19.2803 42.1014 19.3361H41.7976C41.7638 19.2803 41.7473 19.2153 41.7386 19.1345C41.6293 19.2237 41.5277 19.2878 41.4271 19.3203C41.3767 19.3361 41.3255 19.3528 41.2752 19.3611C41.2249 19.3686 41.1659 19.3769 41.1155 19.3769C40.9211 19.3769 40.7779 19.3286 40.6773 19.2478C40.5757 19.1587 40.5254 19.0454 40.5254 18.908C40.5254 18.8272 40.5506 18.7539 40.5844 18.6897C40.6261 18.6248 40.6773 18.5681 40.7363 18.5273C40.7953 18.4873 40.8621 18.4549 40.9472 18.439C40.9975 18.4224 41.0817 18.4065 41.1997 18.3982C41.2249 18.3899 41.25 18.3899 41.2752 18.3899ZM41.2752 19.1504C41.3516 19.142 41.4184 19.1179 41.4774 19.0854C41.5616 19.0454 41.6293 18.9804 41.6718 18.8997C41.697 18.8355 41.7135 18.7381 41.7135 18.6164V18.5198C41.6119 18.5598 41.4687 18.5923 41.2752 18.6164C41.2674 18.6164 41.2587 18.6248 41.2414 18.6248C41.1233 18.6406 41.0392 18.6573 40.9888 18.6814C40.9385 18.6972 40.9046 18.7297 40.8795 18.7705C40.8543 18.8105 40.837 18.8513 40.837 18.8997C40.837 18.9721 40.8708 19.0371 40.9211 19.0854C40.9801 19.1345 41.0643 19.1587 41.1823 19.1587C41.2162 19.1587 41.2414 19.1587 41.2752 19.1504ZM46.0534 17.0797H46.1038C46.2808 17.0797 46.424 17.1046 46.5333 17.1529C46.6427 17.1929 46.7268 17.2662 46.7859 17.3629C46.8535 17.452 46.8787 17.5569 46.8787 17.6627C46.8787 17.751 46.8535 17.8485 46.8032 17.9293C46.7442 18.0184 46.6592 18.0825 46.5498 18.1392C46.693 18.18 46.8032 18.245 46.8787 18.3416C46.9551 18.439 46.9967 18.5515 46.9967 18.6814C46.9967 18.7864 46.9716 18.8913 46.929 18.9804C46.8787 19.0696 46.8197 19.142 46.752 19.1912C46.6852 19.2395 46.601 19.272 46.4995 19.3045C46.3901 19.3286 46.2634 19.3361 46.1116 19.3361H46.0534H45.2186V17.0797H46.0534V17.0797ZM46.0534 18.0259C46.1793 18.0259 46.2808 18.0184 46.3398 18.0017C46.4153 17.9776 46.4743 17.9451 46.5168 17.8884C46.5585 17.8401 46.575 17.7752 46.575 17.6944C46.575 17.6219 46.5585 17.5494 46.5168 17.4928C46.483 17.4362 46.424 17.4037 46.3563 17.3795C46.2973 17.3629 46.1957 17.347 46.0534 17.347C46.0361 17.347 46.0196 17.347 46.0022 17.347H45.5301V18.0259H46.0361C46.0447 18.0259 46.0447 18.0259 46.0534 18.0259V18.0259ZM46.0534 19.0696H46.1116C46.2131 19.0696 46.2886 19.0696 46.3311 19.0612C46.3988 19.0454 46.4578 19.0288 46.5082 18.9971C46.5585 18.9721 46.5923 18.9321 46.6262 18.8755C46.6592 18.8189 46.6765 18.7539 46.6765 18.6814C46.6765 18.6006 46.6513 18.5273 46.6088 18.4632C46.5585 18.3982 46.4995 18.3582 46.4153 18.3332C46.3398 18.3091 46.2218 18.2933 46.0786 18.2933H46.0534H45.5301V19.0696H46.0534V19.0696ZM49.2132 19.3361V17.7027H49.4744V17.9376C49.6002 17.7593 49.7772 17.6627 50.0133 17.6627C50.1226 17.6627 50.2155 17.6869 50.2997 17.7185C50.3838 17.751 50.4515 17.8002 50.4932 17.8568C50.5357 17.9126 50.5696 17.9859 50.586 18.0667C50.5947 18.115 50.6034 18.2041 50.6034 18.3332V19.3361H50.3083V18.3416C50.3083 18.2283 50.2997 18.1475 50.2745 18.0909C50.258 18.0342 50.2155 17.9859 50.1565 17.9534C50.0975 17.9209 50.0298 17.9051 49.9543 17.9051C49.8362 17.9051 49.7269 17.9451 49.634 18.0184C49.5499 18.0909 49.4995 18.2366 49.4995 18.4465V19.3361H49.2132V19.3361ZM48.0329 18.3899C48.2273 18.3657 48.3783 18.3332 48.4712 18.3016C48.4798 18.2608 48.4798 18.2366 48.4798 18.2283C48.4798 18.115 48.446 18.0342 48.3957 17.9859C48.3193 17.9293 48.2099 17.8968 48.0668 17.8968C48.0581 17.8968 48.0416 17.8968 48.0329 17.8968C47.9149 17.8968 47.8229 17.9209 47.7639 17.9617C47.6962 18.0101 47.6537 18.0909 47.6198 18.2041L47.3421 18.1717C47.3673 18.0509 47.4098 17.9617 47.4688 17.8884C47.5278 17.816 47.612 17.7593 47.7214 17.7269C47.8142 17.6944 47.9149 17.6702 48.0329 17.6702C48.0581 17.6627 48.0832 17.6627 48.1093 17.6627C48.2525 17.6627 48.3705 17.6869 48.4625 17.7185C48.5553 17.751 48.623 17.7918 48.6647 17.8401C48.7072 17.8884 48.7324 17.9534 48.7497 18.0259C48.7575 18.075 48.7662 18.1633 48.7662 18.2849V18.6489C48.7662 18.908 48.7749 19.0779 48.7827 19.142C48.8001 19.207 48.8252 19.2803 48.8591 19.3361H48.5553C48.5302 19.2803 48.505 19.2153 48.4963 19.1345C48.3957 19.2237 48.2863 19.2878 48.1935 19.3203C48.1423 19.3361 48.0919 19.3528 48.0329 19.3611C47.9826 19.3686 47.9236 19.3769 47.8732 19.3769C47.6875 19.3769 47.5443 19.3286 47.4437 19.2478C47.3421 19.1587 47.2918 19.0454 47.2918 18.908C47.2918 18.8272 47.3083 18.7539 47.3421 18.6897C47.3847 18.6248 47.435 18.5681 47.494 18.5273C47.553 18.4873 47.6285 18.4549 47.7049 18.439C47.7552 18.4224 47.8481 18.4065 47.9574 18.3982C47.9826 18.3899 48.0078 18.3899 48.0329 18.3899V18.3899ZM48.0329 19.1504C48.1093 19.142 48.1761 19.1179 48.2351 19.0854C48.3193 19.0454 48.387 18.9804 48.4295 18.8997C48.4625 18.8355 48.4712 18.7381 48.4712 18.6164V18.5198C48.3783 18.5598 48.2273 18.5923 48.0329 18.6164C48.0251 18.6164 48.0164 18.6248 47.9991 18.6248C47.881 18.6406 47.7969 18.6573 47.7552 18.6814C47.7049 18.6972 47.6624 18.7297 47.6372 18.7705C47.612 18.8105 47.5947 18.8513 47.5947 18.8997C47.5947 18.9721 47.6285 19.0371 47.6875 19.0854C47.7379 19.1345 47.8307 19.1587 47.9409 19.1587C47.9739 19.1587 48.0078 19.1587 48.0329 19.1504V19.1504ZM51.6986 19.1104C51.8253 19.1104 51.9424 19.0612 52.0275 18.9646C52.1195 18.8672 52.162 18.7139 52.162 18.5032C52.162 18.3016 52.1195 18.1475 52.0275 18.0509C51.9346 17.9451 51.8253 17.8968 51.6986 17.8968C51.6899 17.8968 51.6899 17.8968 51.6899 17.8968C51.5641 17.8968 51.4539 17.9451 51.3619 18.0425C51.269 18.1475 51.2265 18.2933 51.2265 18.4957C51.2265 18.7056 51.269 18.8597 51.3619 18.9646C51.4539 19.0612 51.5641 19.1104 51.6986 19.1104ZM51.6986 19.7734C51.8166 19.7651 51.9008 19.7409 51.9685 19.6926C52.044 19.6435 52.0943 19.571 52.1195 19.4819C52.1368 19.4252 52.1368 19.3045 52.1368 19.1262C52.0188 19.2637 51.8756 19.3286 51.6986 19.3361C51.6899 19.3361 51.6734 19.3361 51.6647 19.3361C51.4287 19.3361 51.2517 19.2553 51.1258 19.0937C50.9991 18.9321 50.9314 18.7381 50.9314 18.5115C50.9314 18.3582 50.9566 18.2125 51.0156 18.0825C51.0746 17.9451 51.1675 17.8485 51.2768 17.7752C51.387 17.7027 51.5215 17.6627 51.6734 17.6627C51.6821 17.6627 51.6899 17.6627 51.6986 17.6627C51.8834 17.6702 52.044 17.751 52.1707 17.8968V17.7027H52.4319V19.1179C52.4319 19.3686 52.4067 19.5552 52.3555 19.6601C52.2965 19.7651 52.2123 19.8459 52.0943 19.9109C51.985 19.9675 51.8505 20 51.6986 20C51.6821 20 51.6734 20 51.6647 20C51.4625 20 51.2942 19.9592 51.1675 19.87C51.0416 19.7809 50.9826 19.6518 50.9904 19.4744L51.269 19.5144C51.2855 19.5952 51.3107 19.6601 51.3697 19.6926C51.4374 19.7493 51.538 19.7734 51.6647 19.7734C51.6734 19.7734 51.6821 19.7734 51.6986 19.7734V19.7734Z" fill="#007697"/>
</g>
<defs>
<clipPath id="clip0">
<rect width="56" height="20" fill="white"/>
</clipPath>
</defs>
</svg>
