<svg width="32" height="26" viewBox="0 0 32 26" fill="none" xmlns="http://www.w3.org/2000/svg">
<path fill-rule="evenodd" clip-rule="evenodd" d="M6.36169 2.65163C6.36169 1.18728 7.60092 0 9.12935 0H22.892C24.4204 0 25.6585 1.18728 25.6585 2.65163V15.8372C25.6585 17.3016 24.4204 18.4889 22.892 18.4889H9.12935C7.60092 18.4889 6.36169 17.3016 6.36169 15.8372V2.65163V2.65163ZM9.72807 16.6771C8.91359 16.6771 8.25274 16.044 8.25274 15.2625V3.22957C8.25274 2.44924 8.91359 1.81609 9.72807 1.81609H11.4113C13.6299 1.81609 15.2724 3.96878 13.8536 5.33031L9.73824 9.27852L13.2707 12.8241C14.9832 14.5428 12.977 16.6771 11.0769 16.6771H9.72807V16.6771ZM15.0702 1.81609H16.4925C18.71 1.81609 20.3525 3.96878 18.9348 5.33031L14.8183 9.27852L22.3848 16.6739L14.4003 16.6728C16.1152 16.6728 17.1985 13.9075 15.3628 12.0763L12.559 9.27852L15.8226 6.05545C17.5803 4.31944 16.3049 2.08558 15.0702 1.81609V1.81609ZM23.7663 15.2625L17.6391 9.27852L20.9038 6.05545C22.6615 4.31944 21.385 2.08558 20.1503 1.81609H22.2876C23.1032 1.81609 23.7641 2.44924 23.7641 3.22957L23.7663 15.2625V15.2625ZM1.26692 24.0768V25.1547H1.76849C2.02944 25.1547 2.22713 25.1071 2.36156 25.014C2.49599 24.9209 2.56377 24.7846 2.56377 24.606C2.56377 24.4296 2.50164 24.2975 2.37851 24.2088C2.25537 24.1211 2.07124 24.0768 1.8261 24.0768H1.26692ZM1.26692 22.239V23.264H1.65439C1.92438 23.264 2.12546 23.2196 2.25989 23.133C2.39319 23.0453 2.45984 22.9122 2.45984 22.7336C2.45984 22.5713 2.39771 22.449 2.27119 22.3646C2.1458 22.2812 1.9594 22.239 1.7154 22.239H1.26692ZM0.0175171 21.4121H1.97748C2.55699 21.4121 2.99304 21.5117 3.28449 21.7109C3.57707 21.9111 3.7228 22.2076 3.7228 22.6016C3.7228 22.8657 3.64598 23.0865 3.49348 23.2618C3.34098 23.4371 3.11843 23.5637 2.82585 23.6406C3.15458 23.699 3.4065 23.8224 3.58272 24.0107C3.75895 24.1991 3.84706 24.4393 3.84706 24.7315C3.84706 25.1623 3.68665 25.4816 3.3647 25.6894C3.04387 25.8961 2.54908 26 1.88033 26H0.0175171V21.4121H0.0175171ZM6.58084 22.436L5.96066 24.1558H7.18069L6.58084 22.436V22.436ZM5.83639 21.4121H7.37612L9.18922 26H7.82459L7.48457 25.0281H5.64096L5.28399 26H4.02103L5.83639 21.4121V21.4121ZM9.46486 21.4121H11.0588L12.4449 24.1633C12.4923 24.2553 12.5477 24.3841 12.611 24.5486C12.6731 24.7131 12.7431 24.9155 12.8188 25.1547C12.7793 24.9285 12.7488 24.7207 12.7296 24.5313C12.7104 24.3419 12.7013 24.1688 12.7013 24.0118V21.4121H13.8536V26H12.2664L10.8261 23.1492C10.7594 23.0183 10.6973 22.8754 10.6408 22.7217C10.5855 22.568 10.5335 22.4003 10.4861 22.2195C10.5313 22.4934 10.564 22.7445 10.5855 22.9739C10.6069 23.2023 10.6182 23.4047 10.6182 23.5789V26H9.46486V21.4121V21.4121ZM14.7596 21.4121H16.0361V23.3949L17.5193 21.4121H18.9484L17.1895 23.5205L19.128 26H17.5419L16.0361 23.8722V26H14.7596V21.4121V21.4121ZM22.8423 24.0768V25.1547H23.345C23.6048 25.1547 23.8025 25.1071 23.9369 25.014C24.0725 24.9209 24.1391 24.7846 24.1391 24.606C24.1391 24.4296 24.0781 24.2975 23.9539 24.2088C23.8307 24.1211 23.6466 24.0768 23.4015 24.0768H22.8423V24.0768ZM22.8423 22.239V23.264H23.2298C23.4997 23.264 23.702 23.2196 23.8353 23.133C23.9686 23.0453 24.0363 22.9122 24.0363 22.7336C24.0363 22.5713 23.9731 22.449 23.8466 22.3646C23.7212 22.2812 23.5359 22.239 23.2908 22.239H22.8423V22.239ZM21.5929 21.4121H23.554C24.1335 21.4121 24.5684 21.5117 24.861 21.7109C25.1524 21.9111 25.2982 22.2076 25.2982 22.6016C25.2982 22.8657 25.2225 23.0865 25.07 23.2618C24.9163 23.4371 24.6938 23.5637 24.4023 23.6406C24.7299 23.699 24.9819 23.8224 25.1581 24.0107C25.3343 24.1991 25.4224 24.4393 25.4224 24.7315C25.4224 25.1623 25.262 25.4816 24.9412 25.6894C24.6204 25.8961 24.1245 26 23.4557 26H21.5929V21.4121V21.4121ZM27.4253 22.2195V23.396H27.8738C28.1494 23.396 28.3573 23.3473 28.4951 23.252C28.6329 23.1557 28.7018 23.0118 28.7018 22.8202C28.7018 22.6135 28.625 22.462 28.4714 22.3646C28.3177 22.2672 28.0749 22.2195 27.7416 22.2195H27.4253V22.2195ZM26.177 21.4121H28.0794C28.7131 21.4121 29.1831 21.5106 29.4903 21.7076C29.7976 21.9046 29.9512 22.2044 29.9512 22.607C29.9512 22.9046 29.8699 23.1492 29.7084 23.3408C29.5457 23.5324 29.3118 23.6601 29.0057 23.725C29.2576 23.8127 29.4598 24.0638 29.6135 24.4772L30.1851 26H28.8543L28.433 24.7445C28.3652 24.5421 28.2737 24.4025 28.1562 24.3246C28.0399 24.2478 27.858 24.2088 27.6106 24.2088H27.4253V26H26.177V21.4121V21.4121ZM30.7104 21.4121H31.9869V26H30.7104V21.4121Z" fill="#1F4396"/>
</svg>
