<svg width="66" height="9" viewBox="0 0 66 9" fill="none" xmlns="http://www.w3.org/2000/svg">
<path fill-rule="evenodd" clip-rule="evenodd" d="M11.022 9H0V0H11.022V9Z" fill="#83242C"/>
<path fill-rule="evenodd" clip-rule="evenodd" d="M1.38916 1.56812H7.29459L10.2457 4.4847L7.29459 7.67377H1.38916L4.0323 4.4847L1.38916 1.56812Z" fill="#E6262C"/>
<path fill-rule="evenodd" clip-rule="evenodd" d="M10.2457 4.4847L7.29459 1.56812H1.38916L4.0323 4.4847H10.2457Z" fill="#FEFEFE"/>
<path d="M18.4863 3.23911C18.1814 2.92215 17.7414 2.74143 17.1757 2.74143C16.0191 2.74143 15.1674 3.56441 15.1674 4.69601C15.1674 5.82762 16.0191 6.6506 17.1254 6.6506C17.7414 6.6506 18.2411 6.41149 18.5554 6L19.8283 6.83132C19.25 7.55144 18.2725 7.88508 17.3203 7.88508C15.158 7.88508 13.5803 6.64226 13.5803 4.69879C13.5803 2.75533 15.158 1.51251 17.3203 1.51251C18.0934 1.51251 19.074 1.74328 19.6617 2.40222L18.4863 3.24189V3.23911Z" fill="#83242C"/>
<path d="M20.6391 1.66263H22.1665V7.72658H20.6391V1.66263Z" fill="#83242C"/>
<path d="M23.5557 1.66263H25.8689L27.4623 5.61907H27.4843L29.0903 1.66263H31.3909V7.72658H29.8634V3.07505H29.8414L28.0217 7.72658H26.8557L25.1052 3.07505H25.0832V7.72658H23.5557V1.66263Z" fill="#83242C"/>
<path d="M32.7988 1.66263H35.3823C36.5954 1.66263 37.9185 1.88506 37.9185 3.20572C37.9185 3.88135 37.4377 4.34567 36.7243 4.54307V4.55976C37.6357 4.66263 38.2423 5.25484 38.2423 6.04168C38.2423 7.30952 36.872 7.72936 35.6368 7.72936H32.7988V1.66263ZM34.3263 4.0871H35.4325C35.904 4.0871 36.3911 3.91471 36.3911 3.42815C36.3911 2.92213 35.8443 2.79423 35.3634 2.79423H34.3263V4.0871ZM34.3263 6.59775H35.6965C36.1774 6.59775 36.7148 6.41703 36.7148 5.88598C36.7148 5.31323 35.9794 5.2187 35.4797 5.2187H34.3231V6.59775H34.3263Z" fill="#83242C"/>
<path d="M40.3574 1.66266H42.3563C43.4123 1.66266 44.5877 1.89343 44.5877 3.26414C44.5877 3.88138 44.1666 4.37907 43.3431 4.52364V4.54033C44.2546 4.60149 44.8894 5.18259 44.8894 6.0306C44.8894 7.42633 43.5097 7.72661 42.57 7.72661H40.3574V1.65988V1.66266ZM41.0048 4.28453H42.3468C43.6888 4.28453 43.9434 3.64227 43.9434 3.26414C43.9434 2.41614 43.2583 2.17703 42.4348 2.17703H41.0048V4.28453ZM41.0048 7.21503H42.482C44 7.21503 44.2451 6.47823 44.2451 6.05006C44.2451 5.14922 43.4028 4.7989 42.5794 4.7989H41.0017V7.21503H41.0048Z" fill="#83242C"/>
<path d="M48.6514 1.66263H49.3176L52.2342 7.72936H51.5114L50.7571 6.11953H47.0862L46.3036 7.72936H45.6279L48.6545 1.66263H48.6514ZM48.9562 2.27987L47.3408 5.60517H50.5214L48.9562 2.27987Z" fill="#83242C"/>
<path d="M53.2338 1.66263H54.0635L58.2843 6.9731H58.3032V1.66263H58.9506V7.72658H58.1178L53.9 2.4161H53.878V7.72658H53.2338V1.66263Z" fill="#83242C"/>
<path d="M60.8489 1.66263H61.4963V4.33455H61.556L64.9126 1.66263H65.8052L62.2977 4.43742L66 7.72658H65.0697L61.556 4.59034H61.4963V7.72658H60.8489V1.66263Z" fill="#83242C"/>
</svg>
