<svg width="62" height="16" viewBox="0 0 62 16" fill="none" xmlns="http://www.w3.org/2000/svg">
<path fill-rule="evenodd" clip-rule="evenodd" d="M0 0.000427246L21.5673 4.81043H0V0.000427246Z" fill="#EA5B24"/>
<path fill-rule="evenodd" clip-rule="evenodd" d="M9.84143 0.000671387L21.5673 4.81067H9.84143V0.000671387Z" fill="#FDD100"/>
<path fill-rule="evenodd" clip-rule="evenodd" d="M62 13.804L21.5673 4.81067H62V13.804Z" fill="#F39910"/>
<path fill-rule="evenodd" clip-rule="evenodd" d="M46.0913 13.804L21.5673 4.81067H46.0913V13.804Z" fill="#FDD100"/>
<path d="M1.50675 10.3907V14.8814H2.1459C2.61734 14.8814 2.94285 14.7387 3.12047 14.4514C3.2994 14.166 3.38854 13.5607 3.38854 12.636C3.38854 11.712 3.2994 11.106 3.12047 10.8207C2.94285 10.5334 2.61734 10.3907 2.1459 10.3907H1.50675V10.3907ZM0 9.40469H2.34464C3.25847 9.40469 3.90092 9.64403 4.27199 10.1234C4.64175 10.6014 4.82795 11.444 4.82795 12.654C4.82795 13.8607 4.64175 14.7027 4.27199 15.1807C3.90092 15.66 3.25847 15.8987 2.34464 15.8987H0V9.40469H0ZM5.83487 12.5534V12.4647C5.83487 12.0714 6.00126 11.7734 6.3314 11.5687C6.66153 11.3647 7.14486 11.2627 7.7807 11.2627C8.40863 11.2627 8.87016 11.3674 9.16464 11.5794C9.45847 11.7914 9.60439 12.1254 9.60439 12.5794V14.8334C9.60439 15.032 9.61297 15.2214 9.62948 15.3987C9.644 15.576 9.66843 15.7427 9.70145 15.8987H8.46937L8.36373 15.3834C8.23761 15.5474 8.0534 15.6814 7.80711 15.782C7.56215 15.8827 7.30266 15.9334 7.02997 15.9334C6.62192 15.9334 6.29838 15.8074 6.0587 15.5534C5.82034 15.2994 5.70017 14.9554 5.70017 14.5194C5.70017 14.0114 5.87316 13.6354 6.21981 13.3907C6.56645 13.146 7.12505 13.0027 7.89559 12.9654H8.33468V12.7594C8.33468 12.448 8.29176 12.23 8.20658 12.104C8.12075 11.978 7.97945 11.9147 7.7807 11.9147C7.56215 11.9147 7.39774 11.9687 7.28616 12.0754C7.17589 12.182 7.11977 12.3414 7.11977 12.5534H5.83487V12.5534ZM8.33468 13.652C7.83683 13.652 7.49282 13.714 7.30398 13.8354C7.11514 13.9574 7.02006 14.172 7.02006 14.48C7.02006 14.704 7.0676 14.8767 7.16136 15C7.25644 15.1234 7.38784 15.1854 7.55423 15.1854C7.80513 15.1854 7.99793 15.0874 8.13197 14.892C8.26667 14.6967 8.33468 14.4154 8.33468 14.0487V13.652ZM12.0368 15.8987H10.645V12.184C10.645 11.9747 10.6417 11.814 10.6351 11.7014C10.6285 11.5874 10.6166 11.4774 10.6021 11.372H11.9986L12.0368 11.8394C12.1484 11.6514 12.2996 11.5087 12.4872 11.41C12.674 11.312 12.8926 11.2627 13.1441 11.2627C13.576 11.2627 13.9081 11.3647 14.1385 11.5687C14.3663 11.7734 14.4819 12.068 14.4819 12.456V15.8987H13.09V12.8087C13.09 12.5147 13.0557 12.3127 12.9863 12.2034C12.917 12.0934 12.7975 12.038 12.6285 12.038C12.4489 12.038 12.3043 12.0967 12.198 12.212C12.091 12.328 12.0368 12.484 12.0368 12.6814V15.8987ZM15.4776 12.5534V12.4647C15.4776 12.0714 15.6433 11.7734 15.9734 11.5687C16.3042 11.3647 16.7869 11.2627 17.4227 11.2627C18.0507 11.2627 18.5122 11.3674 18.8067 11.5794C19.1005 11.7914 19.2471 12.1254 19.2471 12.5794V14.8334C19.2471 15.032 19.255 15.2214 19.2715 15.3987C19.2867 15.576 19.3111 15.7427 19.3441 15.8987H18.1114L18.0064 15.3834C17.8796 15.5474 17.6954 15.6814 17.4491 15.782C17.2042 15.8827 16.9447 15.9334 16.672 15.9334C16.2646 15.9334 15.9411 15.8074 15.7007 15.5534C15.463 15.2994 15.3429 14.9554 15.3429 14.5194C15.3429 14.0114 15.5152 13.6354 15.8618 13.3907C16.2085 13.146 16.7671 13.0027 17.5383 12.9654H17.9767V12.7594C17.9767 12.448 17.9344 12.23 17.8486 12.104C17.7634 11.978 17.6221 11.9147 17.4227 11.9147C17.2042 11.9147 17.0398 11.9687 16.9282 12.0754C16.8186 12.182 16.7625 12.3414 16.7625 12.5534H15.4776V12.5534ZM17.9767 13.652C17.4789 13.652 17.1355 13.714 16.9467 13.8354C16.7578 13.9574 16.6621 14.172 16.6621 14.48C16.6621 14.704 16.7096 14.8767 16.8034 15C16.8985 15.1234 17.0305 15.1854 17.1963 15.1854C17.4478 15.1854 17.64 15.0874 17.7747 14.892C17.9094 14.6967 17.9767 14.4154 17.9767 14.0487V13.652V13.652ZM21.6789 11.8394C21.7905 11.6514 21.9417 11.5087 22.1292 11.41C22.3167 11.312 22.5353 11.2627 22.7862 11.2627C23.1071 11.2627 23.3764 11.3227 23.595 11.4427C23.8135 11.5627 23.9661 11.736 24.0565 11.958C24.1846 11.7267 24.3477 11.5527 24.5432 11.4367C24.7386 11.3207 24.9684 11.2627 25.2318 11.2627C25.6636 11.2627 25.9958 11.3647 26.2255 11.5687C26.454 11.7734 26.5689 12.068 26.5689 12.456V15.8987H25.177V12.8087C25.177 12.508 25.1447 12.3054 25.0773 12.1987C25.0093 12.092 24.8918 12.038 24.7254 12.038C24.5465 12.038 24.3999 12.0967 24.2896 12.214C24.18 12.3307 24.1239 12.4874 24.1239 12.6814V15.8987H22.732V12.8087C22.732 12.5147 22.6977 12.3127 22.6284 12.2034C22.5597 12.0934 22.4395 12.038 22.2705 12.038C22.0915 12.038 21.9469 12.0967 21.84 12.212C21.733 12.328 21.6789 12.484 21.6789 12.6814V15.8987H20.287V12.184C20.287 11.9747 20.2837 11.814 20.2771 11.7014C20.2705 11.5874 20.2593 11.4774 20.2448 11.372H21.6412L21.6789 11.8394V11.8394ZM29.5256 11.2627C30.24 11.2627 30.7544 11.438 31.0667 11.7887C31.3803 12.1387 31.5368 12.722 31.5368 13.5347C31.5368 14.482 31.3869 15.1294 31.0898 15.478C30.7907 15.8254 30.2598 15.9994 29.4959 15.9994C28.728 15.9994 28.1945 15.8254 27.8954 15.4754C27.5943 15.1267 27.4451 14.4787 27.4451 13.5347C27.4451 12.716 27.6062 12.1327 27.9264 11.784C28.2466 11.4367 28.7795 11.2627 29.5256 11.2627ZM28.8468 13.592C28.8468 14.2294 28.8944 14.6574 28.9881 14.88C29.0832 15.1007 29.2522 15.212 29.4959 15.212C29.7389 15.212 29.9079 15.1007 30.0036 14.88C30.0967 14.6574 30.1449 14.2294 30.1449 13.592C30.1449 12.9667 30.0967 12.5547 30.0036 12.3567C29.9079 12.158 29.7356 12.0587 29.486 12.0587C29.243 12.0587 29.0753 12.158 28.9829 12.358C28.8924 12.558 28.8468 12.97 28.8468 13.592ZM33.8253 15.8987H32.4335V12.184C32.4335 11.9747 32.4302 11.814 32.4236 11.7014C32.417 11.5874 32.4057 11.4774 32.3912 11.372H33.7877L33.8253 11.8394C33.9369 11.6514 34.0881 11.5087 34.2756 11.41C34.4632 11.312 34.6817 11.2627 34.9333 11.2627C35.3651 11.2627 35.6972 11.3647 35.927 11.5687C36.1554 11.7734 36.2703 12.068 36.2703 12.456V15.8987H34.8791V12.8087C34.8791 12.5147 34.8441 12.3127 34.7755 12.2034C34.7061 12.0934 34.5866 12.038 34.4169 12.038C34.238 12.038 34.0934 12.0967 33.9864 12.212C33.8795 12.328 33.8253 12.484 33.8253 12.6814V15.8987V15.8987Z" fill="#007242"/>
<path fill-rule="evenodd" clip-rule="evenodd" d="M46.0913 10.2653L21.5673 4.81067H46.0913V10.2653Z" fill="#EA5B24"/>
<path fill-rule="evenodd" clip-rule="evenodd" d="M9.84143 2.19534L21.5673 4.81068H9.84143V2.19534Z" fill="#F39910"/>
</svg>
