<svg width="53" height="20" viewBox="0 0 53 20" fill="none" xmlns="http://www.w3.org/2000/svg">
<g clip-path="url(#clip0)">
<path fill-rule="evenodd" clip-rule="evenodd" d="M0.017395 0H52.9821V20H0.017395V0Z" fill="white"/>
<path fill-rule="evenodd" clip-rule="evenodd" d="M2.37009 1.25168H50.6299C51.3087 1.25168 51.8634 1.85045 51.8634 2.58246V6.68888H45.8239C45.5061 2.97053 29.6018 2.17773 26.8531 2.15524C22.4221 2.11943 7.16202 3.22619 7.16202 6.61726V6.68888H1.1366V2.58246C1.1366 1.85045 1.69135 1.25168 2.37009 1.25168V1.25168Z" fill="#FF0000"/>
<path fill-rule="evenodd" clip-rule="evenodd" d="M7.15731 12.769H1.1366V7.24765H7.16045C7.15574 8.97733 7.13377 11.0984 7.15731 12.769V12.769ZM51.8634 7.24765V12.769H45.8372C45.8851 11.0426 45.7784 8.98899 45.8168 7.24765H51.8634Z" fill="#0000FF"/>
<path fill-rule="evenodd" clip-rule="evenodd" d="M51.8634 13.327V17.4184C51.8634 18.1496 51.3087 18.7484 50.6299 18.7484H2.37009C1.69135 18.7484 1.1366 18.1496 1.1366 17.4184V13.327H7.19811C7.94197 16.6689 20.4424 17.9822 26.6962 18.0188C30.2193 18.0397 44.8839 16.8505 45.7839 13.327H51.8634Z" fill="#F9CD09"/>
<path fill-rule="evenodd" clip-rule="evenodd" d="M26.7785 3.13125C30.2137 3.16456 44.9261 4.75184 44.7912 6.72136C44.6774 8.37525 44.9081 11.5823 44.7912 13.2362C44.6546 15.1524 30.1094 16.8288 26.6851 16.798C22.9948 16.7647 8.25969 15.4689 8.19927 13.0588C8.15768 11.4016 8.19927 8.5618 8.19927 6.90373C8.19927 4.44371 23.0309 3.09461 26.7785 3.13125V3.13125ZM26.7628 4.64024C23.2247 4.61193 9.22011 5.51799 9.22011 7.43421C9.22011 8.72669 9.18245 11.2775 9.22011 12.5683C9.27661 14.4953 23.1902 15.2632 26.6749 15.289C29.9077 15.3123 43.6424 14.1997 43.7711 12.7065C43.8817 11.4182 43.6636 8.63008 43.7711 7.34094C43.899 5.80613 30.0066 4.66689 26.7628 4.64024V4.64024Z" fill="#E6252D"/>
<path fill-rule="evenodd" clip-rule="evenodd" d="M20.9148 10.1782C21.0952 10.2648 21.0607 10.7287 20.8379 11.2125C20.615 11.6956 20.2862 12.0187 20.105 11.9321C19.9245 11.8463 19.959 11.3816 20.1819 10.8977C20.4047 10.4147 20.7343 10.0916 20.9148 10.1782V10.1782ZM33.157 10.2199C33.3375 10.3065 33.3038 10.7712 33.0801 11.2542C32.8573 11.7372 32.5277 12.0603 32.3473 11.9745C32.166 11.8879 32.2005 11.4232 32.4242 10.9402C32.647 10.4572 32.9758 10.1333 33.157 10.2199ZM39.1668 10.0841C39.2648 10.1632 39.1762 10.4672 38.9675 10.7595C38.7595 11.0518 38.5084 11.2259 38.4103 11.1468C38.3115 11.0676 38.4001 10.7637 38.6089 10.4714C38.8168 10.1791 39.0671 10.005 39.1668 10.0841V10.0841ZM39.2931 9.45787C38.6057 9.40291 38.1459 9.90841 37.905 10.4081C37.7136 10.8045 37.6571 11.3741 37.7936 11.8496C37.5951 12.0195 37.3479 12.1669 36.9548 12.2493C36.7602 12.291 36.6527 12.1344 36.6543 11.9904C36.659 11.5765 36.7014 11.2292 36.8136 10.8411C36.8591 10.6804 37.0152 10.7354 37.0686 10.5996C37.1776 10.3181 37.191 10.0458 36.841 10.09C36.6158 10.1191 36.3726 10.1549 36.364 9.83179C36.3553 9.517 36.7178 9.34878 36.6645 9.3213C36.4636 9.21887 36.2949 9.32047 36.0854 9.24135C36.0265 9.21887 36.0752 9.07729 36.0156 9.05647C35.9355 9.02816 35.7951 9.1181 35.7488 9.19305C35.6476 9.35794 35.6562 9.50867 35.5809 9.70271C35.5181 9.86594 35.5118 10.0475 35.4765 10.2199C35.3674 10.5588 34.6754 11.6098 34.1669 11.8838C33.8813 12.0378 33.7016 11.9021 33.7903 11.5856C33.908 11.1626 34.3003 10.1333 34.5553 9.40707C34.3058 9.41374 34.0845 9.43456 33.835 9.44039C33.806 9.53282 33.7628 9.59528 33.7346 9.68772C33.1759 9.30797 32.8361 9.45371 32.3284 9.84095C31.951 10.1291 31.6199 10.5646 31.4418 11.0868C31.3712 11.2942 31.3327 11.504 31.3272 11.7005C31.0188 11.8196 30.712 11.9945 30.4366 11.9512C30.3699 11.9404 30.3236 11.8313 30.3393 11.7613C30.4311 11.3391 30.6257 10.9494 30.7466 10.5347C30.8219 10.274 30.9718 10.0075 30.9255 9.74019C30.8627 9.37959 30.4288 9.36877 30.1926 9.49785C29.9925 9.60861 29.8395 9.80181 29.6394 9.91257C29.5994 9.93506 29.5421 9.91007 29.5092 9.87843C29.4228 9.79598 29.382 9.66857 29.2973 9.58446C29.2228 9.51034 29.1372 9.43372 29.0368 9.41207C28.9144 9.38542 28.7778 9.39542 28.6625 9.44621C28.4177 9.55448 28.2427 9.85011 27.9791 9.87843C27.8645 9.89092 27.9383 9.62693 27.8653 9.53282C27.6887 9.30631 27.5193 9.38542 27.3113 9.48036C26.8845 9.67773 26.4631 9.88676 26.0386 10.09C26.081 10.1816 26.1163 10.2757 26.1453 10.3739C26.314 10.3123 26.489 10.2332 26.66 10.1891C26.7393 10.1682 26.8358 10.1258 26.9049 10.1716C26.9669 10.2132 26.992 10.3215 26.9692 10.3964C26.7377 11.1884 26.427 11.9512 26.1555 12.729C26.438 12.7232 26.7197 12.7174 27.0022 12.7115C27.2572 12.0145 27.4353 11.28 27.7672 10.6213C27.8268 10.5022 28.001 10.4564 28.125 10.483C28.2105 10.5013 28.2404 10.6338 28.2553 10.7245C28.2749 10.8386 28.2584 10.9602 28.2231 11.0701C28.0458 11.6264 27.8213 12.1644 27.6205 12.7115C27.9304 12.7057 28.2553 12.7349 28.5644 12.729C28.8634 12.0028 28.9803 11.2592 29.3459 10.5696C29.3915 10.483 29.6316 10.4555 29.7202 10.483C29.7799 10.5013 29.8473 10.5738 29.8348 10.6388C29.7555 11.0268 29.5531 11.3766 29.4605 11.7613C29.4166 11.9404 29.3805 12.1369 29.4275 12.3143C29.4676 12.4642 29.5735 12.6074 29.7045 12.6766C29.816 12.7365 29.9635 12.7107 30.0788 12.6599C30.5167 12.4667 30.9231 12.2019 31.3421 11.9654C31.4159 12.465 31.7541 12.8081 32.3983 12.6557C32.6235 12.6024 32.7467 12.4467 32.9546 12.3418C33.0605 12.6999 33.2936 12.8465 33.6679 12.6832C34.5922 12.2802 35.1344 11.5798 35.8178 10.5297C35.9285 10.5555 36.1458 10.4897 36.2557 10.4914C36.138 10.8694 35.409 12.2185 36.1709 12.6249C36.3836 12.7382 36.5468 12.7007 36.7814 12.6557C37.3079 12.5541 37.6327 12.3168 37.8854 12.0945C38.0141 12.3626 38.2197 12.5758 38.5178 12.6724C39.1244 12.8698 39.8172 12.5292 40.2504 12.3268C40.4811 12.749 41.0766 12.8273 41.4242 12.6932C41.7915 12.5508 42.1226 12.3026 42.416 12.0287C42.4765 11.9712 42.4702 11.8263 42.409 11.7697C42.3525 11.7164 42.2568 11.8113 42.1956 11.8596C41.9421 12.0603 41.4344 12.5666 41.1488 12.1411C41.0209 11.9504 41.1064 11.6289 41.2328 11.2642C41.3568 10.9086 41.4752 10.448 41.5969 10.0916C41.7695 10.0766 41.9641 10.0958 42.1367 10.0808C42.2112 9.85844 42.2434 9.68023 42.318 9.45787C42.201 9.44788 42.0418 9.46037 41.9248 9.45038C42.0323 8.85411 42.2646 8.24535 42.4616 7.64824C42.1963 7.65407 41.9743 7.67073 41.7083 7.67573C41.5223 8.25617 41.3764 8.82579 41.1221 9.40624C40.9487 9.41207 40.7643 9.42873 40.5909 9.43372C40.5454 9.65108 40.4991 9.86843 40.4528 10.085C40.5862 10.08 40.7722 10.0741 40.9048 10.0691C40.7361 10.7503 40.5533 11.3641 40.1774 11.8921C40.044 12.0795 39.8125 12.1869 39.596 12.2344C38.9314 12.3784 38.6756 12.1502 38.5704 11.8305C38.8505 11.5806 39.1291 11.4632 39.3818 11.1817C39.789 10.7304 40.2888 9.53865 39.2931 9.45787V9.45787ZM16.2037 6.8063C15.1491 6.93539 13.5868 7.0578 12.6939 7.68156C12.1689 8.04881 11.6981 8.75334 12.1689 9.47037C12.6303 10.1707 13.4526 9.87426 13.7861 9.40874C13.4048 9.35544 13.1011 9.27966 13.0768 8.98985C12.9685 7.67323 14.1023 7.94555 15.1899 7.56913C14.6249 8.98735 14.1165 11.5148 12.6782 11.8271C11.6314 12.0536 11.1512 11.5631 10.9072 10.8719C10.3273 12.0561 11.1567 12.5966 11.9006 12.7182C12.5887 12.8315 13.4699 12.3759 13.9564 11.8355C14.3001 11.5973 14.6437 11.3266 14.9568 11.0185C15.0384 10.9377 16.1856 10.0058 16.0797 10.777C15.9863 11.4557 15.7321 11.9512 15.5422 12.6083C15.8247 12.6133 16.1064 12.6191 16.3888 12.6249C16.5952 11.9745 16.7466 11.3016 17.0071 10.6729C17.0527 10.563 17.1727 10.4822 17.2841 10.4655C17.3877 10.4497 17.5391 10.483 17.5776 10.5863C17.6443 10.7695 17.5486 11.001 17.4999 11.1892C17.4207 11.4982 16.982 12.5042 17.5525 12.5808C18.1127 12.6566 18.742 12.231 19.0739 11.9446C19.1202 12.2435 19.2693 12.5042 19.5659 12.6541C19.7699 12.7573 20.0242 12.6907 20.2439 12.6374C20.4228 12.5941 20.5703 12.4592 20.7327 12.3693C20.7037 12.8031 21.0937 12.7523 21.355 12.6208C21.9458 12.3226 22.2754 12.1136 22.6787 11.9712C22.6371 11.8946 22.6002 11.8138 22.568 11.7314C22.2777 11.8096 21.9921 11.9587 21.6947 11.9346C21.5951 11.9262 21.5684 11.7339 21.5998 11.6331C22.0164 10.3065 22.5461 9.02233 23.0192 7.71737C22.7721 7.73402 22.5829 7.73402 22.3358 7.75068C22.1412 8.30864 21.8893 8.88326 21.6947 9.44122C20.7665 9.26051 19.9025 9.53616 19.2984 10.7628C19.1689 11.0252 19.0779 11.3316 19.0606 11.6264C18.8503 11.773 18.6549 11.9229 18.407 11.9887C18.3152 12.0137 18.2446 11.8604 18.261 11.7613C18.3144 11.4316 18.4227 11.1159 18.527 10.7986C18.5984 10.5821 18.8637 9.95338 18.7656 9.74019C18.5961 9.37043 18.3481 9.37293 18.0963 9.48286C17.773 9.6236 17.4434 9.94255 17.2677 9.87843C17.0095 9.78349 17.0833 9.36044 16.6948 9.40874C16.5724 9.42373 16.4477 9.4762 16.3402 9.53282C15.787 9.8218 15.2613 10.2374 14.7324 10.5938C15.2401 9.55781 15.7219 8.17706 16.2037 6.8063V6.8063Z" fill="#0000FF"/>
<path d="M24.3289 8.95319H24.3297C24.8531 8.95319 25.3286 9.1797 25.673 9.54529V9.54612C26.0167 9.91088 26.2301 10.4147 26.2301 10.9702V10.971C26.2301 11.5273 26.0167 12.032 25.6723 12.3967C25.3278 12.7623 24.8531 12.9888 24.3297 12.9888H24.3289C23.8055 12.9888 23.33 12.7623 22.9856 12.3967C22.6411 12.0311 22.4277 11.5273 22.4277 10.9718V10.9702C22.4277 10.4147 22.6411 9.91004 22.9856 9.54529C23.33 9.1797 23.8048 8.95319 24.3281 8.95319H24.3289V8.95319ZM24.3297 9.19885H24.3281C23.8691 9.19885 23.4517 9.39789 23.1496 9.71934C22.8475 10.04 22.6591 10.483 22.6591 10.9702V10.9718C22.6599 11.459 22.8475 11.902 23.1496 12.2227C23.4517 12.5433 23.8691 12.7431 24.3289 12.7431H24.3297C24.7895 12.7423 25.2062 12.5441 25.5083 12.2227C25.8111 11.902 25.9987 11.459 25.9987 10.971V10.9702C25.9987 10.483 25.8111 10.04 25.509 9.71934H25.5083C25.2062 9.39789 24.7887 9.19885 24.3297 9.19885V9.19885Z" fill="#FF0000"/>
<path fill-rule="evenodd" clip-rule="evenodd" d="M24.3288 9.44452C25.1229 9.44452 25.7671 10.1282 25.7671 10.971C25.7671 11.8138 25.1229 12.4975 24.3288 12.4975C23.5348 12.4975 22.8906 11.8138 22.8906 10.971C22.8906 10.1282 23.5348 9.44452 24.3288 9.44452V9.44452ZM24.3288 9.75848C24.9597 9.75848 25.4713 10.3014 25.4713 10.971C25.4713 11.6406 24.9597 12.1835 24.3288 12.1835C23.698 12.1835 23.1872 11.6406 23.1872 10.971C23.1872 10.3014 23.698 9.75848 24.3288 9.75848V9.75848Z" fill="#FF0000"/>
<path fill-rule="evenodd" clip-rule="evenodd" d="M24.3288 10.0558C24.8051 10.0558 25.1912 10.4655 25.1912 10.971C25.1912 11.4765 24.8051 11.8862 24.3288 11.8862C23.8525 11.8862 23.4665 11.4765 23.4665 10.971C23.4665 10.4655 23.8525 10.0558 24.3288 10.0558V10.0558Z" fill="#FF0000"/>
</g>
<defs>
<clipPath id="clip0">
<rect width="53" height="20" fill="white"/>
</clipPath>
</defs>
</svg>
