<svg width="66" height="18" viewBox="0 0 66 18" fill="none" xmlns="http://www.w3.org/2000/svg">
<g clip-path="url(#clip0)">
<path d="M48.9687 10.2598H51.2686V17.7819H48.9687V10.2598ZM43.3081 17.7819V12.595C43.3081 12.1699 43.3002 11.7629 43.2844 11.3708C43.2687 10.981 43.2482 10.6114 43.2167 10.2598H45.325L45.4086 11.6054C45.6087 11.1437 45.9287 10.7943 46.367 10.5567C46.8028 10.3198 47.349 10.2021 48.0001 10.2021H48.0686L48.0607 12.1774C47.9212 12.1677 47.8196 12.1602 47.751 12.1549C47.6801 12.1497 47.617 12.1474 47.5618 12.1474C46.9605 12.1474 46.4907 12.2876 46.1518 12.565C45.8105 12.8416 45.6403 13.2292 45.6403 13.721V17.7819H43.3081V17.7819ZM39.8307 10.2598H42.1306V17.7819H39.8307V10.2598V10.2598ZM36.1034 17.7819L36.0278 16.7076C35.744 17.1124 35.4027 17.4175 35.0039 17.6222C34.6043 17.8268 34.1535 17.9295 33.6491 17.9295C32.6907 17.9295 31.9135 17.572 31.3145 16.8575C30.7187 16.1431 30.4192 15.197 30.4192 14.0231C30.4192 12.8416 30.7108 11.8956 31.2964 11.1856C31.882 10.4772 32.656 10.1219 33.6199 10.1219C34.1425 10.1219 34.5996 10.2193 34.9882 10.412C35.3791 10.6039 35.7149 10.8985 35.9962 11.2936V6.99055H38.2804V16.2683C38.2804 16.6476 38.2859 16.9572 38.2985 17.1926C38.3119 17.4295 38.3332 17.6267 38.3568 17.7819H36.1034V17.7819ZM32.7506 14.0358C32.7506 14.8125 32.8924 15.4144 33.1738 15.841C33.4544 16.2683 33.8508 16.4805 34.3576 16.4805C34.8747 16.4805 35.2877 16.2631 35.5895 15.826C35.8914 15.389 36.0435 14.7922 36.0435 14.0358C36.0435 13.2764 35.8914 12.6745 35.5895 12.2374C35.2877 11.7981 34.8747 11.5785 34.3576 11.5785C33.8508 11.5785 33.4544 11.7929 33.1738 12.2254C32.8924 12.6572 32.7506 13.2614 32.7506 14.0358ZM21.8809 17.7819V11.7029C21.8809 11.4885 21.8762 11.2636 21.8628 11.029C21.8494 10.7943 21.8289 10.5372 21.8053 10.2598H23.9948L24.0421 11.388C24.3384 10.9337 24.6931 10.6016 25.1006 10.3917C25.5073 10.1818 26.0062 10.0769 26.5965 10.0769C27.4682 10.0769 28.1145 10.3123 28.537 10.7838C28.9595 11.2531 29.1723 11.9728 29.1723 12.9391V17.7819H26.9118V13.2389C26.9118 12.6767 26.8093 12.2749 26.6068 12.0305C26.405 11.7876 26.0771 11.6654 25.62 11.6654C25.1786 11.6654 24.8216 11.8003 24.5536 12.0725C24.2833 12.3424 24.1493 12.7022 24.1493 13.1512V17.7819H21.8809V17.7819ZM0.0793658 17.7819V11.7029C0.0793658 11.433 0.0738486 11.1811 0.0636024 10.9442C0.052568 10.7066 0.0368046 10.4795 0.0186768 10.2598H2.1956L2.2555 11.388C2.55264 10.9337 2.90416 10.6016 3.31401 10.3917C3.72071 10.1818 4.21962 10.0769 4.80759 10.0769C5.40424 10.0769 5.90551 10.2021 6.31772 10.4547C6.72678 10.7066 7.02629 11.0709 7.21545 11.5485C7.47318 11.0409 7.80894 10.6691 8.22352 10.4315C8.63888 10.1946 9.1638 10.0769 9.80143 10.0769C10.6739 10.0769 11.3218 10.3123 11.7474 10.7838C12.173 11.2531 12.3851 11.9728 12.3851 12.9391V17.7819H10.1009V13.2389C10.1009 12.6767 9.99848 12.2749 9.7967 12.0305C9.59414 11.7876 9.26627 11.6654 8.80913 11.6654C8.36854 11.6654 8.01387 11.8003 7.7514 12.0725C7.48579 12.3424 7.35496 12.7022 7.35496 13.1512V17.7819H5.07005V13.2389C5.07005 12.6819 4.97074 12.2824 4.77134 12.035C4.57114 11.7876 4.24878 11.6654 3.80189 11.6654C3.3613 11.6654 3.01214 11.8004 2.75205 12.068C2.49195 12.3371 2.36348 12.6969 2.36348 13.1512V17.7819H0.0793658V17.7819ZM18.5659 16.9962C18.1048 17.3785 17.2039 17.7894 16.5836 17.922C16.3464 17.9745 16.0871 18 15.8065 18C15.1421 18 14.5864 17.7774 14.1379 17.3336C13.6903 16.8883 13.4672 16.3208 13.4672 15.6311C13.4672 15.0771 13.5815 14.6273 13.8093 14.278C14.0386 13.9264 14.361 13.6505 14.7795 13.4488C15.1933 13.2487 15.7095 13.104 16.3227 13.0185C16.9367 12.9338 17.5736 12.8694 18.2317 12.8304V12.7891C18.2317 10.99 15.5346 11.2141 14.3807 11.9833L13.9819 10.5657C14.8828 10.1631 15.7702 9.95919 16.8729 9.95919C18.8063 9.95919 20.4394 10.8408 20.4394 12.9481V17.7976H18.5659V16.9962V16.9962ZM18.3846 15.5284V14.0778C18.0362 14.11 17.6563 14.1528 17.2488 14.206C16.8414 14.2615 16.5324 14.3252 16.3212 14.3972C16.0634 14.4841 15.8648 14.6146 15.73 14.7817C15.5929 14.9519 15.5243 15.1723 15.5243 15.4482C15.5243 17.3531 17.8628 16.7346 18.3846 15.5284V15.5284Z" fill="#0061AE"/>
<path fill-rule="evenodd" clip-rule="evenodd" d="M25.5447 5.468C26.2501 6.21766 27.5632 8.25148 29.1175 8.12554C32.7596 7.83167 34.8333 4.08564 39.3298 4.35327C41.1765 4.46272 42.0466 7.40962 43.8783 7.66375C46.7646 8.06332 49.5311 3.84125 54.2356 4.08339C56.1706 4.18309 56.9698 7.27468 58.8977 7.45309C60.6955 7.61952 63.5108 5.19588 65.9849 3.93946C65.3551 2.92967 64.1839 1.35389 62.9378 1.27443C60.4843 1.117 58.5217 4.09838 56.3637 3.57812C55.1082 3.27526 53.6768 -0.00673652 51.6079 1.03878e-05C47.7782 0.0120049 45.1355 3.6186 41.7487 3.90347C39.8279 4.0654 38.9034 0.00076004 36.3308 0.374089C32.8093 0.885355 29.2105 3.64559 25.5447 5.468V5.468Z" fill="url(#paint0_linear)"/>
</g>
<defs>
<linearGradient id="paint0_linear" x1="28.0976" y1="11.0769" x2="62.8958" y2="-4.06386" gradientUnits="userSpaceOnUse">
<stop stop-color="#F6AD02"/>
<stop offset="0.2" stop-color="#FFF000"/>
<stop offset="0.411765" stop-color="#F6AD02"/>
<stop offset="0.658824" stop-color="#FFF000"/>
<stop offset="0.788235" stop-color="#F6AD02"/>
<stop offset="1" stop-color="#FFF000"/>
</linearGradient>
<clipPath id="clip0">
<rect width="66" height="18" fill="white"/>
</clipPath>
</defs>
</svg>
