<svg width="45" height="14" viewBox="0 0 45 14" fill="none" xmlns="http://www.w3.org/2000/svg">
<g clip-path="url(#clip0)">
<path fill-rule="evenodd" clip-rule="evenodd" d="M15.4253 0.363502H21.0773L21.0806 2.5675L19.6893 2.56508L22.9877 10.1727L26.2315 2.57233H24.8005V0.369943L29.3228 0.367529L29.3162 1.62338L23.8738 13.9886C22.5604 13.9919 21.7058 13.5287 21.2479 12.5596L16.7652 2.57233L15.4245 2.56991L15.4253 0.363502V0.363502ZM7.65179 -0.0231628C11.582 -0.0231628 14.7678 3.09755 14.7678 6.94649C14.7678 10.7954 11.582 13.9153 7.65179 13.9153C3.72154 13.9153 0.535767 10.7954 0.535767 6.94649C0.535767 3.09755 3.72154 -0.0231628 7.65179 -0.0231628V-0.0231628ZM7.63026 2.25736C10.1088 2.25736 12.1178 4.37999 12.1178 6.99804C12.1178 9.6169 10.1088 11.7387 7.63026 11.7387C5.15087 11.7387 3.14186 9.6169 3.14186 6.99804C3.14186 4.37999 5.15087 2.25736 7.63026 2.25736V2.25736ZM37.3481 -0.0231628C41.2784 -0.0231628 44.4642 3.09755 44.4642 6.94649C44.4642 10.7954 41.2784 13.9153 37.3481 13.9153C33.4179 13.9153 30.2321 10.7954 30.2321 6.94649C30.2321 3.09755 33.4179 -0.0231628 37.3481 -0.0231628V-0.0231628ZM37.3266 2.25736C39.8052 2.25736 41.8142 4.37999 41.8142 6.99804C41.8142 9.6169 39.8052 11.7387 37.3266 11.7387C34.8472 11.7387 32.8382 9.6169 32.8382 6.99804C32.8382 4.37999 34.8472 2.25736 37.3266 2.25736V2.25736Z" fill="#4C3494"/>
</g>
<defs>
<clipPath id="clip0">
<rect width="45" height="14" fill="white"/>
</clipPath>
</defs>
</svg>
